<?xml version="1.0" encoding="utf-8"?><svg fill="none" viewBox="0 0 620 620" xmlns="http://www.w3.org/2000/svg" xmlns:xlink="http://www.w3.org/1999/xlink"><defs><clipPath id="cp-620-620"><rect height="620" width="620" y="0" x="0" /></clipPath><clipPath id="cp-589-589"><rect height="589" width="589" y="0" x="0" /></clipPath><g id="comp_7"><g opacity="1" id="Capa 19 contornos"><animate repeatCount="indefinite" attributeName="opacity" dur="0.8333333333333334s" begin="0s" calcMode="spline" values="1; 1" keyTimes="0; 1" keySplines="0 0 1 1" fill="freeze" /><g transform="translate(294.14,281.422)"><animateTransform repeatCount="indefinite" type="translate" attributeName="transform" dur="0.833s" begin="0s" calcMode="spline" values="294.14 281.422; 294.14 281.422; 294.14 281.422" keyTimes="0; 0.92; 1" keySplines="0 0 1 1; 0 0 1 1" fill="freeze" /><g transform="rotate(0)"><animateTransform repeatCount="indefinite" type="rotate" attributeName="transform" dur="0.833s" begin="0s" calcMode="spline" values="0; 0" keyTimes="0; 1" keySplines="0 0 1 1" fill="freeze" /><g transform="scale(1,1)"><animateTransform repeatCount="indefinite" type="scale" attributeName="transform" dur="0.833s" begin="0s" calcMode="spline" values="1 1; 1 1" keyTimes="0; 1" keySplines="0 0 1 1" fill="freeze" /><g transform="translate(-137.194,-66.741)"><animateTransform repeatCount="indefinite" type="translate" attributeName="transform" dur="0.833s" begin="0s" calcMode="spline" values="-137.194 -66.741; -137.194 -66.741" keyTimes="0; 1" keySplines="0 0 1 1" fill="freeze" /><g id="Grupo 1" transform="matrix(1,0,0,1,137.193,66.741)"><path fill="#d36f24" fill-opacity="1" d="M136.251,5.677C133.215,-2.487,129.188,-14.675,127.066,-21.675C123.824,-32.377,120.284,-43.103,115.58,-53.215C110.277,-64.612,104.594,-66.491,92.568,-63.126C90.007,-62.41,87.395,-61.65,85.045,-60.443C74.885,-55.228,65.348,-53.031,52.939,-50.227C59.81,-38.867,65.507,-26.709,65.507,-17.084C65.507,-2.605,59.136,9.014,47.079,16.517C36.279,23.239,21.115,19.689,2.011,19.689L0.191,19.689L-0.191,19.689L-2.011,19.689C-21.116,19.689,-36.278,23.239,-47.078,16.517C-59.135,9.014,-65.507,-2.605,-65.507,-17.084C-65.507,-26.705,-59.816,-38.858,-52.949,-50.214C-64.784,-52.108,-75.072,-55.19,-85.307,-60.443C-87.657,-61.65,-90.269,-62.41,-92.831,-63.126C-104.856,-66.491,-110.54,-64.612,-115.843,-53.215C-120.547,-43.103,-124.087,-32.377,-127.329,-21.675C-129.45,-14.675,-133.477,-2.487,-136.514,5.677C-136.626,5.979,-136.776,6.243,-136.943,6.487C-136.935,6.48,-136.926,6.475,-136.917,6.468C-135.791,11.032,-133.313,35.988,-125.645,38.324C-113.138,42.137,-83.926,30.426,-65.486,12.859C-63.214,10.695,-59.483,11.709,-58.604,14.715C-53.175,33.261,-31.637,66.491,0.032,66.491C31.7,66.491,53.238,33.261,58.667,14.715C59.547,11.709,63.278,10.695,65.55,12.859C83.99,30.426,113.202,42.137,125.709,38.324C133.377,35.988,135.804,11.387,136.93,6.823C136.934,6.824,136.938,6.826,136.943,6.828C136.659,6.507,136.419,6.128,136.251,5.677Z" /></g></g></g></g></g></g><g opacity="1" id="Capa 17 contornos"><animate repeatCount="indefinite" attributeName="opacity" dur="0.8333333333333334s" begin="0s" calcMode="spline" values="1; 1" keyTimes="0; 1" keySplines="0 0 1 1" fill="freeze" /><g transform="translate(294.14,346.073)"><animateTransform repeatCount="indefinite" type="translate" attributeName="transform" dur="0.833s" begin="0s" calcMode="spline" values="294.14 346.073; 294.14 346.073" keyTimes="0; 1" keySplines="0 0 1 1" fill="freeze" /><g transform="rotate(0)"><animateTransform repeatCount="indefinite" type="rotate" attributeName="transform" dur="0.833s" begin="0s" calcMode="spline" values="0; 0" keyTimes="0; 1" keySplines="0 0 1 1" fill="freeze" /><g transform="scale(1,1)"><animateTransform repeatCount="indefinite" type="scale" attributeName="transform" dur="0.833s" begin="0s" calcMode="spline" values="1 1; 1 1" keyTimes="0; 1" keySplines="0 0 1 1" fill="freeze" /><g transform="translate(-143.411,-74.405)"><animateTransform repeatCount="indefinite" type="translate" attributeName="transform" dur="0.833s" begin="0s" calcMode="spline" values="-143.411 -74.405; -143.411 -74.405" keyTimes="0; 1" keySplines="0 0 1 1" fill="freeze" /><g id="Grupo 1" transform="matrix(1,0,0,1,143.411,74.405)"><path fill="#ffffff" fill-opacity="1" d="M136.95,-72.881C135.824,-68.317,133.397,-43.715,125.729,-41.377C113.222,-37.565,84.011,-49.276,65.57,-66.843C63.299,-69.007,59.567,-67.994,58.687,-64.988C53.259,-46.442,26.928,-13.212,0.051,-13.212C-28.32,-13.212,-53.155,-46.442,-58.583,-64.988C-59.463,-67.994,-63.195,-69.007,-65.467,-66.843C-83.907,-49.276,-113.119,-37.565,-125.626,-41.377C-133.294,-43.715,-135.772,-68.67,-136.898,-73.234C-138.836,-71.675,-141.557,-71.676,-143.079,-73.613C-143.161,-7.693,-115.546,23.875,-104.975,32.561C-103.464,33.804,-101.201,32.617,-101.362,30.673C-101.569,28.197,-101.743,26.098,-101.918,23.998C-101.32,23.808,-77.53,60.326,-63.794,72.765C-62.258,74.155,-59.821,72.858,-60.118,70.813C-60.781,66.238,-61.671,60.714,-61.968,57.684C-61.301,58.351,-57.567,62.502,-52.073,68.023C-36.488,71.434,-18.952,73.356,-0.398,73.356C18.612,73.356,36.557,71.341,52.426,67.77C57.782,62.376,61.415,58.342,62.071,57.684C61.775,60.714,60.885,66.238,60.221,70.813C59.926,72.858,62.362,74.155,63.898,72.765C77.634,60.326,101.423,23.808,102.02,23.998C101.845,26.098,101.672,28.197,101.467,30.673C101.304,32.617,103.567,33.804,105.079,32.561C115.649,23.875,143.162,-8.234,143.079,-74.154C140.826,-71.001,138.434,-72.235,136.95,-72.881Z" /></g></g></g></g></g></g><g opacity="1" id="Capa 14 contornos"><animate repeatCount="indefinite" attributeName="opacity" dur="0.8333333333333334s" begin="0s" calcMode="spline" values="1; 1" keyTimes="0; 1" keySplines="0 0 1 1" fill="freeze" /><g transform="translate(294.14,173.533)"><animateTransform repeatCount="indefinite" type="translate" attributeName="transform" dur="0.833s" begin="0s" calcMode="spline" values="294.14 173.533; 294.14 173.533; 294.14 173.533" keyTimes="0; 0.92; 1" keySplines="0 0 1 1; 0 0 1 1" fill="freeze" /><g transform="rotate(0)"><animateTransform repeatCount="indefinite" type="rotate" attributeName="transform" dur="0.833s" begin="0s" calcMode="spline" values="0; 0" keyTimes="0; 1" keySplines="0 0 1 1" fill="freeze" /><g transform="scale(1,1)"><animateTransform repeatCount="indefinite" type="scale" attributeName="transform" dur="0.833s" begin="0s" calcMode="spline" values="1 1; 1 1" keyTimes="0; 1" keySplines="0 0 1 1" fill="freeze" /><g transform="translate(-164.039,-117.009)"><animateTransform repeatCount="indefinite" type="translate" attributeName="transform" dur="0.833s" begin="0s" calcMode="spline" values="-164.039 -117.009; -164.039 -117.009" keyTimes="0; 1" keySplines="0 0 1 1" fill="freeze" /><g id="Grupo 1" transform="matrix(1,0,0,1,164.039,117.01)"><path fill="#312b29" fill-opacity="1" d="M162.21,47.931C159.855,45.843,157.502,43.752,155.195,41.611C153.366,39.912,151.563,38.136,150.053,36.16C149.279,35.148,148.447,32.856,148.88,32.444C154.861,26.737,154.322,18.968,150.05,14.486C149.423,13.625,149.127,1.217,149.147,0.181C149.36,-11.033,150.428,-12.629,147.86,-27.576C144.86,-45.033,147.956,-78.328,135.171,-88.354C92.86,-121.533,45.302,-116.759,0.001,-116.759C-48.699,-116.759,-110.603,-118.255,-120.42,-98.354C-127.608,-83.783,-135.575,-69.601,-142.859,-55.076C-149.658,-41.519,-147.64,-30.033,-147.146,-8.069C-147.123,-7.033,-149.422,13.625,-150.049,14.486C-154.321,18.968,-154.86,26.737,-148.879,32.444C-148.447,32.856,-149.278,35.148,-150.052,36.16C-151.562,38.136,-153.365,39.912,-155.195,41.611C-157.501,43.752,-159.854,45.843,-162.209,47.931C-163.789,49.331,-163.292,51.907,-161.308,52.624C-156.009,54.539,-147.517,57.904,-146.918,63.429C-146.668,65.732,-146.839,68.077,-146.707,70.396C-145.988,83.053,-145.547,95.736,-144.327,108.345C-144.161,110.062,-143.735,111.755,-143.19,113.436C-142.14,116.678,-137.57,116.759,-136.382,113.565C-133.345,105.401,-129.318,93.213,-127.198,86.213C-123.956,75.511,-120.415,64.785,-115.712,54.673C-110.409,43.276,-104.725,41.396,-92.7,44.762C-90.138,45.478,-87.526,46.238,-85.176,47.445C-76.811,51.738,-64.194,56.353,-53.312,58.272C-45.739,45.64,-36.62,33.921,-32.12,27.666C-13.802,2.203,-19.665,-49.662,-19.633,-62.587C-19.615,-69.813,-19.36,-72.79,-19.36,-74.425C-19.36,-84.005,-11.382,-97.339,-6.047,-100.443C-2.262,-102.645,2.263,-102.645,6.048,-100.443C11.383,-97.339,19.361,-84.005,19.361,-74.425C19.361,-72.79,19.616,-69.813,19.634,-62.587C19.665,-49.662,13.803,2.203,32.12,27.666C36.532,33.798,45.38,45.184,52.861,57.531C63.844,55.893,76.697,51.797,85.177,47.445C87.527,46.238,90.139,45.478,92.7,44.762C104.726,41.396,110.41,43.276,115.712,54.673C120.417,64.785,123.956,75.511,127.198,86.213C129.319,93.213,133.346,105.401,136.383,113.565C137.57,116.759,142.141,116.678,143.191,113.436C143.736,111.755,144.162,110.062,144.328,108.345C145.548,95.736,145.988,83.053,146.708,70.396C146.841,68.077,146.669,65.732,146.919,63.429C147.518,57.904,156.01,54.539,161.309,52.624C163.293,51.907,163.789,49.331,162.21,47.931Z" /></g></g></g></g></g></g></g><g id="comp_6"><g opacity="1" id="Capa 16 contornos"><animate repeatCount="indefinite" attributeName="opacity" dur="4.333333333333333s" begin="0.16666666666666666s" calcMode="spline" values="1; 1; 1; 1; 1; 1; 1; 1" keyTimes="0; 0.123; 0.192; 0.777; 0.846; 0.9; 0.954; 1" keySplines="0.333 0 0.667 1; 0.333 0 0.833 1; 0.16 0 0.744 1; 0.406 0 0.746 1; 0.164 0 0.83 1; 0.333 0 0.83 1; 0.167 0 0.833 1" fill="freeze" /><g transform="translate(285.113,64.656)"><animateTransform repeatCount="indefinite" type="translate" attributeName="transform" dur="4.333s" begin="0.167s" calcMode="spline" values="285.113 64.656; 285.113 64.656; 285.113 64.656; 285.113 64.656; 285.113 64.656; 285.113 64.656; 285.113 64.656; 285.113 64.656; 285.113 64.656" keyTimes="0; 0.062; 0.123; 0.192; 0.777; 0.846; 0.9; 0.954; 1" keySplines="0 0 1 1; 0 0 1 1; 0 0 1 1; 0 0 1 1; 0 0 1 1; 0 0 1 1; 0 0 1 1; 0 0 1 1" fill="freeze" /><g transform="rotate(0)"><animateTransform repeatCount="indefinite" type="rotate" attributeName="transform" dur="4.333s" begin="0.167s" calcMode="spline" values="0; -3.496; 9.271; 7.791; 7.791; 10.213; -2.997; 2.457; 0" keyTimes="0; 0.062; 0.123; 0.192; 0.777; 0.846; 0.9; 0.954; 1" keySplines="0.333 0 0.667 1; 0.333 0 0.667 1; 0.333 0 0.833 1; 0.16 0 0.744 1; 0.406 0 0.746 1; 0.164 0 0.83 1; 0.333 0 0.83 1; 0.167 0 0.833 1" fill="freeze" /><g transform="scale(1,1)"><animateTransform repeatCount="indefinite" type="scale" attributeName="transform" dur="4.333s" begin="0.167s" calcMode="spline" values="1 1; 1 1; 1 1; 1 1; 1 1; 1 1; 1 1; 1 1; 1 1" keyTimes="0; 0.062; 0.123; 0.192; 0.777; 0.846; 0.9; 0.954; 1" keySplines="0.333 0 0.667 1; 0.333 0 0.667 1; 0.333 0 0.833 1; 0.16 0 0.744 1; 0.406 0 0.746 1; 0.164 0 0.83 1; 0.333 0 0.83 1; 0.167 0 0.833 1" fill="freeze" /><g transform="translate(-189.667,-51.431)"><animateTransform repeatCount="indefinite" type="translate" attributeName="transform" dur="4.333s" begin="0.167s" calcMode="spline" values="-189.667 -51.431; -189.667 -51.431; -189.667 -51.431; -189.667 -51.431; -189.667 -51.431; -189.667 -51.431; -189.667 -51.431; -189.667 -51.431; -189.667 -51.431" keyTimes="0; 0.062; 0.123; 0.192; 0.777; 0.846; 0.9; 0.954; 1" keySplines="0 0 1 1; 0 0 1 1; 0 0 1 1; 0 0 1 1; 0 0 1 1; 0 0 1 1; 0 0 1 1; 0 0 1 1" fill="freeze" /><g id="Grupo 1" transform="matrix(1,0,0,1,98.668,101.431)"><path fill="#3e3e3e" fill-opacity="1" d="M96.162,-57.824C96.161,-57.829,42.81,-74.523,29.232,-99.861C28.524,-101.181,26.556,-99.689,27.155,-98.42C28.787,-94.961,30.419,-91.503,32.051,-88.044C26.378,-90.862,20.972,-94.165,15.854,-97.913C14.718,-98.744,13.62,-97.328,14.029,-96.257C15.699,-91.872,17.37,-87.488,19.04,-83.103C-4.781,-81.437,-76.248,-72.711,-96.012,-34.615C-98.417,-29.981,-97.544,-24.428,-96.557,-19.296C-91.171,8.714,-88.838,37.3,-89.611,65.795C-89.839,74.206,-90.103,83.4,-84.973,90.088C-76.464,101.181,-22.928,51.839,-12.398,30.899C28.332,-50.092,98.418,-40.424,96.162,-57.824Z" /></g></g></g></g></g></g><g opacity="1" id="Capa 15 contornos"><animate repeatCount="indefinite" attributeName="opacity" dur="4.333333333333333s" begin="0.16666666666666666s" calcMode="spline" values="1; 1; 1; 1; 1; 1; 1; 1; 1" keyTimes="0; 0.062; 0.123; 0.192; 0.777; 0.846; 0.9; 0.954; 1" keySplines="0.333 0 0.667 1; 0.333 0 0.667 1; 0.333 0 0.833 1; 0.16 0 0.744 1; 0.406 0 0.746 1; 0.167 0 0.833 1; 0.333 0 0.833 1; 0.167 0 0.833 1" fill="freeze" /><g transform="translate(304.166,58.656)"><animateTransform repeatCount="indefinite" type="translate" attributeName="transform" dur="4.333s" begin="0.167s" calcMode="spline" values="304.166 58.656; 304.166 58.656; 304.166 58.656; 304.166 58.656; 304.166 58.656; 304.166 58.656; 304.166 58.656; 304.166 58.656; 304.166 58.656" keyTimes="0; 0.062; 0.123; 0.192; 0.777; 0.846; 0.9; 0.954; 1" keySplines="0 0 1 1; 0 0 1 1; 0 0 1 1; 0 0 1 1; 0 0 1 1; 0 0 1 1; 0 0 1 1; 0 0 1 1" fill="freeze" /><g transform="rotate(0)"><animateTransform repeatCount="indefinite" type="rotate" attributeName="transform" dur="4.333s" begin="0.167s" calcMode="spline" values="0; 4.58; -8.144; -6.781; -6.781; -8.284; 3.233; -2.059; 0" keyTimes="0; 0.062; 0.123; 0.192; 0.777; 0.846; 0.9; 0.954; 1" keySplines="0.333 0 0.667 1; 0.333 0 0.667 1; 0.333 0 0.833 1; 0.16 0 0.744 1; 0.406 0 0.746 1; 0.167 0 0.833 1; 0.333 0 0.833 1; 0.167 0 0.833 1" fill="freeze" /><g transform="scale(1,1)"><animateTransform repeatCount="indefinite" type="scale" attributeName="transform" dur="4.333s" begin="0.167s" calcMode="spline" values="1 1; 1 1; 1 1; 1 1; 1 1; 1 1; 1 1; 1 1; 1 1" keyTimes="0; 0.062; 0.123; 0.192; 0.777; 0.846; 0.9; 0.954; 1" keySplines="0.333 0 0.667 1; 0.333 0 0.667 1; 0.333 0 0.833 1; 0.16 0 0.744 1; 0.406 0 0.746 1; 0.167 0 0.833 1; 0.333 0 0.833 1; 0.167 0 0.833 1" fill="freeze" /><g transform="translate(-8.668,-45.431)"><animateTransform repeatCount="indefinite" type="translate" attributeName="transform" dur="4.333s" begin="0.167s" calcMode="spline" values="-8.668 -45.431; -8.668 -45.431; -8.668 -45.431; -8.668 -45.431; -8.668 -45.431; -8.668 -45.431; -8.668 -45.431; -8.668 -45.431; -8.668 -45.431" keyTimes="0; 0.062; 0.123; 0.192; 0.777; 0.846; 0.9; 0.954; 1" keySplines="0 0 1 1; 0 0 1 1; 0 0 1 1; 0 0 1 1; 0 0 1 1; 0 0 1 1; 0 0 1 1; 0 0 1 1" fill="freeze" /><g id="Grupo 1" transform="matrix(1,0,0,1,98.667,101.431)"><path fill="#3e3e3e" fill-opacity="1" d="M-96.16,-57.824C-96.16,-57.829,-42.808,-74.523,-29.23,-99.861C-28.522,-101.181,-26.556,-99.689,-27.154,-98.42C-28.786,-94.961,-30.418,-91.503,-32.051,-88.044C-26.377,-90.862,-20.972,-94.165,-15.853,-97.913C-14.718,-98.744,-13.619,-97.328,-14.027,-96.257C-15.697,-91.872,-17.369,-87.488,-19.039,-83.103C4.781,-81.437,76.248,-72.711,96.013,-34.615C98.417,-29.981,97.544,-24.428,96.557,-19.296C91.171,8.714,88.838,37.3,89.611,65.795C89.84,74.206,90.104,83.4,84.974,90.088C76.465,101.181,22.928,51.839,12.398,30.899C-28.332,-50.092,-98.417,-40.424,-96.16,-57.824Z" /></g></g></g></g></g></g></g><g id="comp_5"><g transform="matrix(1,0,0,1,333.516,155.196)" id="Capa 13 contornos"><g id="Grupo 1" transform="matrix(1,0,0,1,19.457,19.458)"><path fill="#ffffff" fill-opacity="1" d="M19.208,-0.001C19.208,10.607,10.608,19.207,0.001,19.207C-10.607,19.207,-19.208,10.607,-19.208,-0.001C-19.208,-10.609,-10.607,-19.207,0.001,-19.207C10.608,-19.207,19.208,-10.609,19.208,-0.001Z" /></g></g><g opacity="1" id="Capa 12 contornos"><animate repeatCount="indefinite" attributeName="opacity" dur="3.6s" begin="0s" calcMode="spline" values="1; 1; 1; 1; 1; 1; 1; 1; 1; 1; 1" keyTimes="0; 0.731; 0.741; 0.75; 0.796; 0.843; 0.852; 0.861; 0.87; 0.963; 1" keySplines="0 0 1 1; 0 0 1 1; 0 0 1 1; 0 0 1 1; 0 0 1 1; 0 0 1 1; 0 0 1 1; 0 0 1 1; 0 0 1 1; 0 0 1 1" fill="freeze" /><g transform="translate(352.973,174.653)"><animateTransform repeatCount="indefinite" type="translate" attributeName="transform" dur="3.6s" begin="0s" calcMode="spline" values="352.973 174.653; 352.973 174.653; 347.598 174.903; 347.848 174.653; 347.973 174.653; 348.113 174.653; 349.168 174.653; 356.668 174.653; 357.113 174.653; 357.113 174.653; 352.973 174.653" keyTimes="0; 0.731; 0.741; 0.75; 0.796; 0.843; 0.852; 0.861; 0.87; 0.963; 1" keySplines="0 0 1 1; 0 0 1 1; 0 0 1 1; 0 0 1 1; 0 0 1 1; 0 0 1 1; 0 0 1 1; 0 0 1 1; 0 0 1 1; 0 0 1 1" fill="freeze" /><g transform="rotate(0)"><animateTransform repeatCount="indefinite" type="rotate" attributeName="transform" dur="3.6s" begin="0s" calcMode="spline" values="0; 0; 0; 0; 0; 0; 0; 0; 0; 0; 0" keyTimes="0; 0.731; 0.741; 0.75; 0.796; 0.843; 0.852; 0.861; 0.87; 0.963; 1" keySplines="0 0 1 1; 0 0 1 1; 0 0 1 1; 0 0 1 1; 0 0 1 1; 0 0 1 1; 0 0 1 1; 0 0 1 1; 0 0 1 1; 0 0 1 1" fill="freeze" /><g transform="scale(1,1)"><animateTransform repeatCount="indefinite" type="scale" attributeName="transform" dur="3.6s" begin="0s" calcMode="spline" values="1 1; 1 1; 1 0.584; 1 1; 1 1; 1 1; 1.083 0.778; 1.083 0.778; 1 1; 1 1; 1 1" keyTimes="0; 0.731; 0.741; 0.75; 0.796; 0.843; 0.852; 0.861; 0.87; 0.963; 1" keySplines="0 0 1 1; 0 0 1 1; 0 0 1 1; 0 0 1 1; 0 0 1 1; 0 0 1 1; 0 0 1 1; 0 0 1 1; 0 0 1 1; 0 0 1 1" fill="freeze" /><g transform="translate(-13.782,-13.782)"><animateTransform repeatCount="indefinite" type="translate" attributeName="transform" dur="3.6s" begin="0s" calcMode="spline" values="-13.782 -13.782; -13.782 -13.782; -13.782 -13.782; -13.782 -13.782; -13.782 -13.782; -13.782 -13.782; -13.782 -13.782; -13.782 -13.782; -13.782 -13.782; -13.782 -13.782; -13.782 -13.782" keyTimes="0; 0.731; 0.741; 0.75; 0.796; 0.843; 0.852; 0.861; 0.87; 0.963; 1" keySplines="0 0 1 1; 0 0 1 1; 0 0 1 1; 0 0 1 1; 0 0 1 1; 0 0 1 1; 0 0 1 1; 0 0 1 1; 0 0 1 1; 0 0 1 1" fill="freeze" /><g id="Grupo 1" transform="matrix(1,0,0,1,13.782,13.782)"><path fill="#312b29" fill-opacity="1" d="M13.532,0C13.532,7.474,7.473,13.532,0.001,13.532C-7.473,13.532,-13.532,7.474,-13.532,0C-13.532,-7.473,-7.473,-13.532,0.001,-13.532C7.473,-13.532,13.532,-7.473,13.532,0Z" /></g></g></g></g></g></g><g opacity="1" id="Capa 11 contornos"><animate repeatCount="indefinite" attributeName="opacity" dur="3.6s" begin="0s" calcMode="spline" values="1; 1; 1; 1; 1; 1; 1; 1; 1; 1; 1" keyTimes="0; 0.731; 0.741; 0.75; 0.796; 0.843; 0.852; 0.861; 0.87; 0.963; 1" keySplines="0 0 1 1; 0 0 1 1; 0 0 1 1; 0 0 1 1; 0 0 1 1; 0 0 1 1; 0 0 1 1; 0 0 1 1; 0 0 1 1; 0 0 1 1" fill="freeze" /><g transform="translate(359.851,166.535)"><animateTransform repeatCount="indefinite" type="translate" attributeName="transform" dur="3.6s" begin="0s" calcMode="spline" values="359.851 166.535; 359.851 166.535; 354.476 167.785; 354.726 167.535; 354.851 167.535; 354.99 167.535; 356.046 167.535; 363.546 167.535; 362.74 167.535; 362.74 167.535; 359.851 166.535" keyTimes="0; 0.731; 0.741; 0.75; 0.796; 0.843; 0.852; 0.861; 0.87; 0.963; 1" keySplines="0 0 1 1; 0 0 1 1; 0 0 1 1; 0 0 1 1; 0 0 1 1; 0 0 1 1; 0 0 1 1; 0 0 1 1; 0 0 1 1; 0 0 1 1" fill="freeze" /><g transform="rotate(0)"><animateTransform repeatCount="indefinite" type="rotate" attributeName="transform" dur="3.6s" begin="0s" calcMode="spline" values="0; 0; 0; 0; 0; 0; 0; 0; 0; 0; 0" keyTimes="0; 0.731; 0.741; 0.75; 0.796; 0.843; 0.852; 0.861; 0.87; 0.963; 1" keySplines="0 0 1 1; 0 0 1 1; 0 0 1 1; 0 0 1 1; 0 0 1 1; 0 0 1 1; 0 0 1 1; 0 0 1 1; 0 0 1 1; 0 0 1 1" fill="freeze" /><g transform="scale(1,1)"><animateTransform repeatCount="indefinite" type="scale" attributeName="transform" dur="3.6s" begin="0s" calcMode="spline" values="1 1; 1 1; 1 0.824; 1 1; 1 1; 1 1; 1.083 0.778; 1.083 0.778; 1 1; 1 1; 1 1" keyTimes="0; 0.731; 0.741; 0.75; 0.796; 0.843; 0.852; 0.861; 0.87; 0.963; 1" keySplines="0 0 1 1; 0 0 1 1; 0 0 1 1; 0 0 1 1; 0 0 1 1; 0 0 1 1; 0 0 1 1; 0 0 1 1; 0 0 1 1; 0 0 1 1" fill="freeze" /><g transform="translate(-5.482,-5.482)"><animateTransform repeatCount="indefinite" type="translate" attributeName="transform" dur="3.6s" begin="0s" calcMode="spline" values="-5.482 -5.482; -5.482 -5.482; -5.482 -5.482; -5.482 -5.482; -5.482 -5.482; -5.482 -5.482; -5.482 -5.482; -5.482 -5.482; -5.482 -5.482; -5.482 -5.482; -5.482 -5.482" keyTimes="0; 0.731; 0.741; 0.75; 0.796; 0.843; 0.852; 0.861; 0.87; 0.963; 1" keySplines="0 0 1 1; 0 0 1 1; 0 0 1 1; 0 0 1 1; 0 0 1 1; 0 0 1 1; 0 0 1 1; 0 0 1 1; 0 0 1 1; 0 0 1 1" fill="freeze" /><g id="Grupo 1" transform="matrix(1,0,0,1,5.482,5.482)"><path fill="#ffffff" fill-opacity="1" d="M5.232,-0.001C5.232,2.889,2.889,5.232,0.001,5.232C-2.889,5.232,-5.232,2.889,-5.232,-0.001C-5.232,-2.89,-2.889,-5.232,0.001,-5.232C2.889,-5.232,5.232,-2.89,5.232,-0.001Z" /></g></g></g></g></g></g></g><g id="comp_4"><g transform="matrix(1,0,0,1,0,0)" id="Precomp. 3"><use clip-path="url(#cp-589-589)" height="589" width="589" y="0" x="0" xlink:href="#comp_5" href="#comp_5" /></g></g><g id="comp_3"><g transform="matrix(1,0,0,1,-4,-1)" id="ojoDer"><use clip-path="url(#cp-589-589)" height="589" width="589" y="0" x="0" xlink:href="#comp_4" href="#comp_4" /></g><g transform="matrix(1,0,0,1,-117.5,-1)" id="ojoDer 2"><use clip-path="url(#cp-589-589)" height="589" width="589" y="0" x="0" xlink:href="#comp_4" href="#comp_4" /></g></g><g id="comp_2"><g opacity="1" id="Capa 5 contornos"><animate repeatCount="indefinite" begin="0s" calcMode="discrete" fill="freeze" dur="8.167s" values="visible; hidden" keyTimes="0; 1" attributeName="visibility" /><animate repeatCount="indefinite" attributeName="opacity" dur="0.8333333333333334s" begin="0s" calcMode="spline" values="1; 1" keyTimes="0; 1" keySplines="0 0 1 1" fill="freeze" /><g transform="translate(294.14,309.519)"><animateTransform repeatCount="indefinite" type="translate" attributeName="transform" dur="0.833s" begin="0s" calcMode="spline" values="294.14 309.519; 294.14 309.519" keyTimes="0; 1" keySplines="0 0 1 1" fill="freeze" /><g transform="rotate(0)"><animateTransform repeatCount="indefinite" type="rotate" attributeName="transform" dur="0.833s" begin="0s" calcMode="spline" values="0; 0" keyTimes="0; 1" keySplines="0 0 1 1" fill="freeze" /><g transform="scale(1,1)"><animateTransform repeatCount="indefinite" type="scale" attributeName="transform" dur="0.833s" begin="0s" calcMode="spline" values="1 1; 1 1" keyTimes="0; 1" keySplines="0 0 1 1" fill="freeze" /><g transform="translate(-78.26,-51.12)"><animateTransform repeatCount="indefinite" type="translate" attributeName="transform" dur="0.833s" begin="0s" calcMode="spline" values="-78.26 -51.12; -78.26 -51.12" keyTimes="0; 1" keySplines="0 0 1 1" fill="freeze" /><g id="Grupo 1" transform="matrix(1,0,0,1,78.259,51.12)"><path fill="#312b29" fill-opacity="1" d="M65.922,-40.329C64.909,-32.903,59.161,-21.35,50.885,-19.077C39.164,-15.857,25.885,-17.36,15.471,-23.084C12.65,-24.634,9.967,-26.502,6.768,-27.297C4.916,-27.757,-4.916,-27.757,-6.768,-27.297C-9.967,-26.502,-12.651,-24.634,-15.471,-23.084C-25.885,-17.36,-39.164,-15.857,-50.884,-19.077C-59.161,-21.35,-64.908,-32.903,-65.921,-40.329C-67.238,-49.972,-78.009,-50.87,-77.586,-39.945C-76.29,-6.414,-59.677,-5.303,-51.668,2.717C-42.81,11.586,-44.18,25.405,-37.104,35.439C-28.132,48.162,-12.578,50.87,-6.763,50.675C-5.605,50.637,-2.673,50.62,0.001,50.625C2.674,50.62,5.605,50.637,6.764,50.675C12.578,50.87,28.132,48.162,37.105,35.439C44.18,25.405,42.811,11.586,51.668,2.717C59.678,-5.303,76.29,-6.414,77.586,-39.945C78.009,-50.87,67.238,-49.972,65.922,-40.329Z" /></g></g></g></g></g></g><g transform="matrix(1,0,0,1,255.163,281.513)" id="Capa 3 contornos"><animate repeatCount="indefinite" begin="0s" calcMode="discrete" fill="freeze" dur="8.167s" values="visible; hidden" keyTimes="0; 1" attributeName="visibility" /><g id="Grupo 1" transform="matrix(1,0,0,1,40.011,48.01)"><path fill="#b95c56" fill-opacity="1" d="M39.461,-30.855C39.761,-33.504,39.447,-35.596,38.869,-37.446C30.332,-37.169,21.69,-39.102,14.438,-43.088C11.617,-44.638,8.934,-46.506,5.734,-47.3C3.883,-47.76,-5.95,-47.76,-7.802,-47.3C-11.001,-46.506,-13.685,-44.638,-16.505,-43.088C-23.174,-39.422,-31.018,-37.498,-38.876,-37.426C-39.45,-35.581,-39.761,-33.495,-39.462,-30.855C-39.362,-29.968,-33.602,11.022,-32.095,22.375C-31.837,24.312,-31.224,26.205,-30.274,28C-29.317,29.812,-28.357,31.622,-27.332,33.409C-22.223,42.317,-13.441,47.191,-1.167,47.726L-1.156,47.726C-0.386,47.76,0.385,47.76,1.154,47.726L1.166,47.726C13.44,47.191,22.222,42.317,27.331,33.409C28.356,31.622,29.315,29.812,30.273,28C31.223,26.205,31.836,24.312,32.094,22.375C33.601,11.022,39.361,-29.968,39.461,-30.855Z" /></g></g><g opacity="1" id="Capa 5 contornos 2"><animate repeatCount="indefinite" begin="0s" calcMode="discrete" fill="freeze" dur="8.167s" values="visible; hidden" keyTimes="0; 1" attributeName="visibility" /><animate repeatCount="indefinite" attributeName="opacity" dur="0.8333333333333334s" begin="0s" calcMode="spline" values="1; 1" keyTimes="0; 1" keySplines="0 0 1 1" fill="freeze" /><g transform="translate(294.14,309.519)"><animateTransform repeatCount="indefinite" type="translate" attributeName="transform" dur="0.833s" begin="0s" calcMode="spline" values="294.14 309.519; 294.14 309.519; 294.14 309.519" keyTimes="0; 0.92; 1" keySplines="0 0 1 1; 0 0 1 1" fill="freeze" /><g transform="rotate(0)"><animateTransform repeatCount="indefinite" type="rotate" attributeName="transform" dur="0.833s" begin="0s" calcMode="spline" values="0; 0" keyTimes="0; 1" keySplines="0 0 1 1" fill="freeze" /><g transform="scale(1,1)"><animateTransform repeatCount="indefinite" type="scale" attributeName="transform" dur="0.833s" begin="0s" calcMode="spline" values="1 1; 1 1" keyTimes="0; 1" keySplines="0 0 1 1" fill="freeze" /><g transform="translate(-78.26,-51.12)"><animateTransform repeatCount="indefinite" type="translate" attributeName="transform" dur="0.833s" begin="0s" calcMode="spline" values="-78.26 -51.12; -78.26 -51.12" keyTimes="0; 1" keySplines="0 0 1 1" fill="freeze" /><g id="Grupo 1" transform="matrix(1,0,0,1,78.259,51.12)"><path fill="#000000" fill-opacity="1" d="M65.922,-40.329C64.909,-32.903,59.161,-21.35,50.885,-19.077C39.164,-15.857,25.885,-17.36,15.471,-23.084C12.65,-24.634,9.967,-26.502,6.768,-27.297C4.916,-27.757,-4.916,-27.757,-6.768,-27.297C-9.967,-26.502,-12.651,-24.634,-15.471,-23.084C-25.885,-17.36,-39.164,-15.857,-50.884,-19.077C-59.161,-21.35,-64.908,-32.903,-65.921,-40.329C-67.238,-49.972,-78.009,-50.87,-77.586,-39.945C-76.29,-6.414,-59.677,-5.303,-51.668,2.717C-42.81,11.586,-44.18,25.405,-37.104,35.439C-35.139,79.981,-6.763,80.675,-6.763,80.675L0.001,80.625L6.764,80.675C6.764,80.675,38.36,79.981,37.105,35.439C44.18,25.405,42.811,11.586,51.668,2.717C59.678,-5.303,76.29,-6.414,77.586,-39.945C78.009,-50.87,67.238,-49.972,65.922,-40.329Z" /></g></g></g></g></g></g></g><clipPath id="cp-520-230"><rect height="230" width="520" y="0" x="0" /></clipPath><g id="comp_1"><g transform="matrix(1,0,0,1,32.644,9.564)" id="Capa 375 contornos"><g id="Grupo 1" transform="matrix(1,0,0,1,233.5,98.622)"><path fill="#ffffff" fill-opacity="1" d="M217.768,81.315C213.371,97.071,186.474,97.753,176.892,97.753C167.311,97.753,-19.063,96.151,-42.159,96.151C-65.256,96.151,-150.646,97.309,-167.38,97.84C-184.115,98.372,-202.237,91.709,-211.565,86.379C-220.892,81.049,-231.252,73.554,-231.252,73.554L-233.25,-65.773C-233.25,-65.773,-203.303,-96.618,-180.565,-96.93C-170.379,-97.069,-99.634,-94.78,-75.649,-93.878C-51.664,-92.976,151.899,-97.265,175.403,-97.773C203.119,-98.372,214.303,-92.709,220.144,-70.92C233.251,-22.014,227.144,47.72,217.768,81.315Z" /></g></g><g transform="matrix(1,0,0,1,132.817,169.127)" id="Capa 374 contornos"><g id="Grupo 23" transform="matrix(1,0,0,1,100.715,17.878)"><path fill="#c9c9c7" fill-opacity="1" d="M7.721,-17.298C7.72,-17.301,7.721,-17.303,7.721,-17.306C7.671,-17.301,7.624,-17.294,7.575,-17.289L-11.786,17.306C-11.684,17.305,-11.59,17.305,-11.489,17.305C-11.357,17.305,-11.229,17.304,-11.1,17.303C-10.559,17.302,-10.034,17.302,-9.548,17.302C-8.864,17.302,-8.034,17.303,-7.075,17.306L11.786,-16.395C10.757,-16.421,9.719,-16.446,8.711,-16.473C8.142,-16.488,7.815,-16.867,7.721,-17.298Z" /></g><g id="Grupo 22" transform="matrix(1,0,0,1,109.405,18.386)"><path fill="#c9c9c7" fill-opacity="1" d="M-9.796,16.822C-8.412,16.829,-6.912,16.838,-5.299,16.846L9.796,-16.741C8.29,-16.776,6.803,-16.81,5.337,-16.846L-9.796,16.822Z" /></g><g id="Grupo 21" transform="matrix(1,0,0,1,117.465,18.492)"><path fill="#c9c9c7" fill-opacity="1" d="M-7.99,16.773C-6.599,16.782,-5.15,16.791,-3.647,16.8L7.99,-16.699C6.533,-16.734,5.099,-16.767,3.673,-16.8L-7.99,16.773Z" /></g><g id="Grupo 20" transform="matrix(1,0,0,1,125.078,18.595)"><path fill="#c9c9c7" fill-opacity="1" d="M-6.313,16.731C-4.938,16.74,-3.527,16.75,-2.081,16.759L6.313,-16.654C4.893,-16.691,3.494,-16.725,2.1,-16.759L-6.313,16.731Z" /></g><g id="Grupo 19" transform="matrix(1,0,0,1,132.39,18.7)"><path fill="#c9c9c7" fill-opacity="1" d="M-4.729,16.686C-3.367,16.696,-1.982,16.707,-0.57,16.717L4.729,-16.603C3.334,-16.643,1.957,-16.681,0.583,-16.717L-4.729,16.686Z" /></g><g id="Grupo 18" transform="matrix(1,0,0,1,139.528,18.81)"><path fill="#c9c9c7" fill-opacity="1" d="M-3.21,16.638C-1.856,16.648,-0.482,16.659,0.908,16.669L3.21,-16.541C1.828,-16.586,0.461,-16.628,-0.903,-16.669L-3.21,16.638Z" /></g><g id="Grupo 17" transform="matrix(1,0,0,1,146.604,18.931)"><path fill="#c9c9c7" fill-opacity="1" d="M-1.733,16.58C-0.377,16.59,0.995,16.601,2.38,16.61L1.738,-16.464C0.356,-16.517,-1.013,-16.564,-2.38,-16.61L-1.733,16.58Z" /></g><g id="Grupo 16" transform="matrix(1,0,0,1,153.729,19.067)"><path fill="#c9c9c7" fill-opacity="1" d="M-0.277,16.508C1.091,16.518,2.471,16.529,3.863,16.539L0.291,-16.371C-1.101,-16.431,-2.483,-16.485,-3.863,-16.539L-0.277,16.508Z" /></g><g id="Grupo 15" transform="matrix(1,0,0,1,161.02,19.223)"><path fill="#c9c9c7" fill-opacity="1" d="M1.177,16.419C2.568,16.43,3.967,16.44,5.375,16.451L-1.142,-16.252C-2.56,-16.323,-3.968,-16.387,-5.375,-16.451L1.177,16.419Z" /></g><g id="Grupo 14" transform="matrix(1,0,0,1,168.607,19.405)"><path fill="#c9c9c7" fill-opacity="1" d="M2.64,16.306C4.066,16.317,5.497,16.327,6.935,16.339L-2.58,-16.099C-4.038,-16.184,-5.487,-16.262,-6.935,-16.339L2.64,16.306Z" /></g><g id="Grupo 13" transform="matrix(1,0,0,1,176.641,19.627)"><path fill="#c9c9c7" fill-opacity="1" d="M4.13,16.158C5.603,16.17,7.08,16.181,8.561,16.193L-4.029,-15.9C-5.544,-16.003,-7.054,-16.1,-8.561,-16.193L4.13,16.158Z" /></g><g id="Grupo 12" transform="matrix(1,0,0,1,185.308,19.901)"><path fill="#c9c9c7" fill-opacity="1" d="M5.658,15.964C7.194,15.976,8.731,15.988,10.27,16L-5.491,-15.632C-7.087,-15.762,-8.679,-15.885,-10.27,-16L5.658,15.964Z" /></g><g id="Grupo 11" transform="matrix(1,0,0,1,194.857,20.252)"><path fill="#c9c9c7" fill-opacity="1" d="M7.225,15.7C8.842,15.713,10.459,15.726,12.074,15.739L-6.958,-15.266C-8.664,-15.431,-10.369,-15.592,-12.074,-15.739L7.225,15.7Z" /></g><g id="Grupo 10" transform="matrix(1,0,0,1,205.638,20.73)"><path fill="#c9c9c7" fill-opacity="1" d="M8.812,15.32C10.535,15.334,12.252,15.347,13.963,15.361L-8.38,-14.74C-10.24,-14.959,-12.1,-15.165,-13.963,-15.361L8.812,15.32Z" /></g><g id="Grupo 9" transform="matrix(1,0,0,1,218.169,21.407)"><path fill="#c9c9c7" fill-opacity="1" d="M10.359,14.755C12.217,14.771,14.065,14.785,15.899,14.8L-9.629,-13.933C-11.723,-14.238,-13.814,-14.527,-15.899,-14.8L10.359,14.755Z" /></g><g id="Grupo 8" transform="matrix(1,0,0,1,233.302,22.449)"><path fill="#c9c9c7" fill-opacity="1" d="M11.666,13.843C13.705,13.86,15.718,13.877,17.705,13.893L-10.404,-12.653C-12.843,-13.087,-15.276,-13.501,-17.705,-13.893L11.666,13.843Z" /></g><g id="Grupo 7" transform="matrix(1,0,0,1,252.553,24.175)"><path fill="#c9c9c7" fill-opacity="1" d="M12.199,12.275C12.831,12.28,13.461,12.286,14.085,12.291C15.368,12.3,16.632,12.31,17.876,12.32C18.216,12.323,18.556,12.326,18.892,12.328L-9.847,-10.413C-12.865,-11.081,-15.881,-11.719,-18.893,-12.328L12.199,12.275Z" /></g><g id="Grupo 6" transform="matrix(1,0,0,1,91.118,17.751)"><path fill="#c9c9c7" fill-opacity="1" d="M7.873,-14.651L-14.023,17.5C-13.895,17.499,-13.772,17.498,-13.645,17.497C-13.433,17.495,-13.224,17.495,-13.015,17.493C-11.625,17.482,-10.289,17.473,-9.023,17.465L12.584,-14.263C14.022,-16.377,9.813,-17.501,7.873,-14.651Z" /></g><g id="Grupo 5" transform="matrix(1,0,0,1,78.128,18.799)"><path fill="#c9c9c7" fill-opacity="1" d="M14.339,-13.185C15.748,-14.88,11.822,-16.589,10.115,-14.536L-15.748,16.589C-15.551,16.587,-15.362,16.586,-15.165,16.584C-14.456,16.576,-13.753,16.569,-13.057,16.562C-13.039,16.562,-13.021,16.561,-13.003,16.561C-12.11,16.552,-11.226,16.544,-10.357,16.535L14.339,-13.185Z" /></g><g id="Grupo 4" transform="matrix(1,0,0,1,63.347,19.912)"><path fill="#c9c9c7" fill-opacity="1" d="M10.99,-13.294L-18.099,15.669C-16.111,15.644,-14.143,15.621,-12.201,15.599L16.055,-12.533C18.099,-14.569,13.282,-15.67,10.99,-13.294Z" /></g><g id="Grupo 3" transform="matrix(1,0,0,1,42.803,22.229)"><path fill="#c9c9c7" fill-opacity="1" d="M11.438,-10.823L-18.172,13.617C-17.957,13.614,-17.741,13.612,-17.525,13.609C-17.166,13.604,-16.808,13.6,-16.449,13.595C-15.513,13.582,-14.577,13.57,-13.639,13.557C-13.396,13.554,-13.153,13.55,-12.91,13.547C-12.511,13.542,-12.111,13.536,-11.712,13.531C-11.676,13.531,-11.641,13.531,-11.605,13.53L16.509,-9.677C18.172,-11.05,14.679,-13.617,11.438,-10.823Z" /></g><g id="Grupo 2" transform="matrix(1,0,0,1,279.32,27.516)"><path fill="#c9c9c7" fill-opacity="1" d="M10.123,9.127C12.875,9.148,15.406,9.167,17.686,9.184L-4.838,-5.647C-9.114,-6.886,-13.398,-8.06,-17.686,-9.184L10.123,9.127Z" /></g><g id="Grupo 1" transform="matrix(1,0,0,1,16.758,26.859)"><path fill="#c9c9c7" fill-opacity="1" d="M11.649,-8.667C11.262,-8.529,10.88,-8.383,10.493,-8.243C8.787,-7.528,5.991,-6.129,4.554,-5.141L4.553,-5.141L-16.508,9.343C-16.425,9.342,-16.339,9.341,-16.256,9.339C-15.304,9.324,-14.343,9.311,-13.372,9.295C-13.24,9.293,-13.109,9.29,-12.976,9.288C-12.888,9.287,-12.8,9.286,-12.711,9.285C-11.72,9.27,-10.719,9.255,-9.711,9.239C-9.545,9.237,-9.378,9.233,-9.212,9.231C-9.17,9.23,-9.128,9.23,-9.086,9.23L14.531,-7.012C16.508,-8.371,14.058,-9.344,11.649,-8.667Z" /></g></g><g transform="matrix(1,0,0,1,163.292,53.712)" id="Capa 371 contornos"><g id="Grupo 5" transform="matrix(1,0,0,1,79.242,58.473)"><path fill="#ffffff" fill-opacity="1" d="M-0.365,-13.43C0.19,-13.138,3.095,-11.797,3.966,-5.714C4.837,0.368,1.662,2.684,-0.098,3.943C-1.21,4.737,-2.537,4.301,-2.543,3.316C-2.549,2.33,-2.637,-10.716,-2.648,-12.248C-2.658,-13.781,-0.92,-13.722,-0.365,-13.43ZM-3.23,-29.395C-4.072,-28.505,-16.065,-17.443,-16.906,-16.597C-18.909,-14.585,-19.438,-12.391,-19.428,-11.231C-19.418,-10.071,-19.24,7.599,-19.09,10.826C-18.939,14.053,-17.102,22.808,-11.935,26.924C-6.769,31.039,-1.923,30.623,-0.534,29.838C1.477,28.699,15.487,17.98,16.447,17.373C18.135,16.307,17.091,13.832,14.992,14.898C14.468,15.164,10.919,17.156,8.729,18.062C6.54,18.967,0.058,20.284,-1.693,14.855C-3.445,9.426,-2.532,9.525,-1.345,8.671C-0.004,7.705,9.634,1.151,13.793,-3.71C17.952,-8.57,19.439,-12.046,14.339,-18.234C9.239,-24.421,1.477,-30.242,1.477,-30.242C0.452,-31.038,-1.675,-31.038,-3.23,-29.395Z" /></g><g id="Grupo 4" transform="matrix(1,0,0,1,29.037,45.54)"><path fill="#ffffff" fill-opacity="1" d="M4.625,-0.295C8.172,2.918,9.779,10.002,8.824,18.068C7.868,26.133,7.478,32.573,4.635,32.561C3.504,32.557,2.632,31.862,1.703,31.262C-1.541,29.167,-4.551,28.218,-8.758,29.335C-12.965,30.452,-12.432,27.959,-11.401,26.828C-10.371,25.696,-9.036,25.423,-9.036,17.849C-9.036,10.274,-8.928,4.168,-8.943,2.985C-8.958,1.802,-8.59,-1.007,-6.829,-1.422C-5.596,-1.713,1.079,-3.508,4.625,-0.295ZM-17.933,-44.147C-19.767,-44.181,-21.415,-43.455,-22.028,-42.196C-22.641,-40.938,-27.853,-31.9,-28.32,-31.171C-28.787,-30.441,-28.645,-28.634,-26.146,-28.56C-25.051,-28.527,-7.445,-29.016,-4.263,-28.958C-1.082,-28.899,3.501,-27.177,3.91,-20.989C4.318,-14.8,1.819,-9.196,-1.5,-7.124C-4.818,-5.051,-6.746,-4.703,-7.533,-4.642C-8.791,-4.545,-9.361,-5.867,-9.39,-7.268C-9.419,-8.669,-9.109,-22.974,-9.167,-24.141C-9.226,-25.309,-10.234,-25.924,-12.854,-25.036C-13.879,-24.689,-19.664,-23.365,-21.976,-18.893C-24.288,-14.421,-25.046,-11.47,-24.579,-2.948C-24.113,5.574,-24.548,16.611,-24.243,20.988C-23.937,25.366,-25.062,32.824,-25.952,35.465C-26.969,38.485,-27.845,41.167,-26.046,41.7C-24.561,42.14,-20.931,40.311,-16.757,40.427C-12.583,40.544,-7.452,41.012,-0.64,43.355C4.991,45.29,13.462,39.663,21.125,29.199C28.787,18.734,26.43,7.253,24.46,1.035C22.489,-5.182,17.454,-7.766,14.521,-8.247C11.587,-8.729,11.838,-10.021,13.129,-10.722C14.421,-11.422,18.828,-11.851,21.162,-21.587C23.497,-31.322,18.417,-38.634,12.288,-41.962C6.158,-45.29,-0.804,-43.888,-7.109,-43.888C-13.415,-43.888,-17.122,-44.131,-17.933,-44.147Z" /></g><g id="Grupo 3" transform="matrix(1,0,0,1,144.933,50.34)"><path fill="#ffffff" fill-opacity="1" d="M-3.592,25.833C-3.693,24.5,-4.084,23.842,-5.551,24.718C-7.018,25.593,-17,32.555,-18.555,33.737C-20.11,34.919,-24.416,38.028,-25.128,38.446C-27.213,39.669,-29.719,39.314,-31.799,38.177C-33.879,37.038,-37.055,34.81,-39.726,30.781C-42.397,26.753,-43.95,22.375,-43.972,18.675C-43.994,14.975,-43.999,0.86,-44.17,-1.499C-44.336,-3.786,-42.901,-6.277,-41.391,-7.7C-39.88,-9.123,-28.903,-19.036,-27.969,-19.987C-26.314,-21.675,-24.52,-20.776,-23.929,-20.229C-23.338,-19.681,-20.175,-16.244,-16.344,-15.543C-12.513,-14.843,-10.641,-15.631,-9.558,-15.812C-7.959,-16.078,-8.617,-13.437,-9.7,-12.213C-10.784,-10.99,-13.966,-6.899,-18.956,-6.231C-21.05,-5.951,-23.251,-6.487,-24.089,-6.689C-26.413,-7.25,-27.646,-7.417,-27.865,-5.785C-27.936,-5.263,-27.684,13.618,-27.568,16.857C-27.45,20.098,-26.313,24.185,-22.285,24.622C-18.257,25.061,-13.984,24.779,-10.842,22.52C-9.261,21.384,-4.507,18.551,-3.894,17.967C-3.281,17.383,-3.077,16.916,-3.049,14.552C-3.02,12.187,-3.252,-24.65,-3.223,-26.665C-3.194,-28.679,-3.938,-29.686,-4.551,-30.313C-5.164,-30.941,-5.821,-31.802,-4.624,-32.634C-3.427,-33.466,6.891,-41.128,7.242,-41.45C7.593,-41.771,8.307,-41.42,9.096,-40.588C9.884,-39.756,12.795,-36.473,12.663,-24.497C12.532,-12.522,12.442,4.081,12.464,5.044C12.486,6.007,13.706,6.344,14.428,5.643C15.15,4.943,19.21,1.73,19.867,-2.232C20.523,-6.195,19.099,-9.129,18.486,-9.938C17.874,-10.749,18.304,-12.2,18.844,-12.597C20.968,-14.16,27.084,-18.459,27.952,-19.084C29.3,-20.053,30.983,-20.874,31.783,-20.407C32.369,-20.065,36.242,-17.623,34.644,-11.668C33.046,-5.713,23.677,2.565,22.67,3.331C21.663,4.097,22.673,4.959,23.373,4.828C24.074,4.696,28.863,3.241,31.271,5.846C33.679,8.451,36.483,22.222,37.687,25.353C38.891,28.482,39.57,31.153,40.117,32.139C40.665,33.124,41.977,34.958,43.489,35.992C44.336,36.571,43.684,37.437,42.503,38.335C41.32,39.232,37.622,41.771,33.856,41.75C30.091,41.728,26.831,39.92,24.989,36.102C23.148,32.283,18.619,14.8,18.027,13.289C17.436,11.779,16.262,10.26,14.808,10.597C12.939,11.029,12.388,12.526,12.41,13.249C12.432,13.972,12.117,24.323,12.27,26.337C12.423,28.352,13.083,29.564,13.671,30.606C14.116,31.395,14.83,32.095,12.619,33.824C10.408,35.554,4.351,40.415,3.85,40.791C3.349,41.166,2.221,40.458,1.455,39.473C0.688,38.487,-2.925,34.634,-3.592,25.833Z" /></g><g id="Grupo 2" transform="matrix(1,0,0,1,206.599,59.051)"><path fill="#ffffff" fill-opacity="1" d="M0.304,-13.446C1.379,-12.435,4.321,-7.178,4.291,-5.368C4.262,-3.558,3.533,0.762,0.614,3.33C-0.49,4.301,-1.529,4.847,-1.721,3.506C-1.915,2.163,-1.43,-12.14,-1.517,-12.9C-1.605,-13.658,-0.77,-14.457,0.304,-13.446ZM-1.342,-29.713C-2.889,-28.253,-14.945,-18.037,-16.521,-16.636C-18.097,-15.235,-18.528,-14.963,-18.516,-13.425C-18.505,-11.887,-18.477,-2.479,-18.448,1.287C-18.419,5.053,-18.886,11.621,-17.721,17.224C-16.557,22.829,-7.386,29.26,-6.298,29.943C-4.598,31.01,-2.3,31.343,-0.377,30.145C2.294,28.483,16.438,17.571,16.463,17.546C17.515,16.539,16.7,15.241,15.589,15.464C14.99,15.583,14.367,16.202,10.193,18.595C6.018,20.988,3.492,20.347,1.262,18.619C-1.241,16.679,-2.503,11.007,-2.452,10.102C-2.355,8.403,-0.972,7.558,-0.506,7.354C-0.039,7.149,11.881,-0.785,14.364,-3.662C16.846,-6.539,18.886,-9.63,16.318,-15.381C13.749,-21.131,4.703,-28.55,2.657,-29.946C0.61,-31.343,0.204,-31.173,-1.342,-29.713Z" /></g><g id="Grupo 1" transform="matrix(1,0,0,1,245.267,60.635)"><path fill="#ffffff" fill-opacity="1" d="M-7.828,29.2C-9.624,30.557,-10.878,30.887,-12.389,29.365C-13.899,27.844,-17.216,24.496,-17.389,18.152C-17.588,10.798,-16.654,-12.466,-16.717,-14.249C-16.816,-17.076,-17.216,-18.675,-18.585,-19.999C-19.215,-20.608,-18.8,-21.616,-17.424,-22.36C-16.048,-23.104,-7.025,-30.012,-6.296,-30.45C-5.566,-30.888,-5.306,-30.627,-4.953,-30.45C-4.6,-30.274,-2.36,-26.419,-1.691,-25.527C-0.527,-23.975,1.365,-25.315,1.891,-25.811C2.416,-26.307,6.187,-29.128,6.723,-29.515C7.769,-30.27,9.017,-29.914,9.687,-29.273C10.358,-28.632,12.787,-24.674,16.034,-24.757C19.198,-24.839,19.216,-23.707,18.924,-23.182C18.633,-22.656,16.356,-17.227,11.686,-16.001C7.015,-14.775,2.67,-17.019,1.794,-17.589C0.918,-18.158,-1.026,-18.512,-1.126,-16.846C-1.14,-16.623,-1.655,13.088,-1.436,14.971C-1.218,16.853,-0.961,18.545,0.016,19.917C0.592,20.727,1.53,21.836,0.085,23.084C-1.36,24.332,-7.828,29.2,-7.828,29.2Z" /></g></g><g transform="matrix(1,0,0,1,48.762,92.477)" id="Capa 370 contornos"><g id="Grupo 1" transform="matrix(1,0,0,1,7.211,46.961)"><path fill="#ffffff" fill-opacity="1" d="M-6.331,45.701C-6.54,46.054,-6.75,46.388,-6.961,46.71C-6.75,46.388,-6.54,46.054,-6.331,45.701C1.846,31.945,6.752,11.973,6.949,-37.726C6.961,-40.853,6.939,-43.844,6.884,-46.71C6.939,-43.844,6.961,-40.853,6.949,-37.726C6.752,11.973,1.846,31.945,-6.331,45.701Z" /></g></g><g transform="matrix(1,0,0,1,27.041,179.995)" id="Capa 204 contornos"><g id="Grupo 1" transform="matrix(1,0,0,1,8.798,6.542)"><path fill="#ffffff" fill-opacity="1" d="M-4.627,3.101C-4.777,3.101,-4.856,3.102,-4.856,3.102C-4.856,3.102,-5.246,0.156,-5.867,-4.929C-6.819,-5.002,-7.711,-5.494,-8.548,-6.291C-7.822,-0.272,-7.349,3.319,-7.335,3.43L-7.136,4.934C-6.619,5.191,-6.102,5.422,-5.587,5.614L-4.82,5.601L-4.627,5.601C-3.903,5.601,-0.208,5.637,4.332,6.291C5.704,5.969,7.12,5.449,8.548,4.498C2.294,3.177,-3.428,3.101,-4.627,3.101Z" /></g></g><g transform="matrix(1,0,0,1,19.017,26.361)" id="Capa 203 contornos"><g id="Grupo 1" transform="matrix(1,0,0,1,12.299,16.782)"><path fill="#ffffff" fill-opacity="1" d="M-12.049,16.531C-11.341,14.035,-10.618,11.851,-9.924,9.777C-9.597,8.802,-9.263,7.857,-8.923,6.941C-7.719,-5.547,-5.105,-13.598,-0.36,-13.598L-0.333,-13.598C-0.256,-13.597,-0.178,-13.598,-0.1,-13.598C4.344,-13.598,8.321,-14.404,12.049,-15.671C11.273,-15.932,10.417,-16.147,9.503,-16.297C9.49,-16.3,9.476,-16.301,9.463,-16.303C9.047,-16.371,8.616,-16.422,8.177,-16.461C8.123,-16.466,8.071,-16.473,8.016,-16.477C7.583,-16.512,7.138,-16.528,6.686,-16.531C6.57,-16.531,6.453,-16.53,6.336,-16.529C6.054,-16.525,5.77,-16.516,5.483,-16.499C5.375,-16.492,5.267,-16.485,5.159,-16.477C4.799,-16.449,4.436,-16.413,4.071,-16.365C4.005,-16.356,3.941,-16.349,3.875,-16.34C3.868,-16.339,3.86,-16.338,3.853,-16.337C3.388,-16.269,2.919,-16.178,2.448,-16.072C2.354,-16.051,2.261,-16.027,2.167,-16.004C1.745,-15.901,1.321,-15.784,0.897,-15.648C0.846,-15.632,0.794,-15.619,0.743,-15.602C0.261,-15.443,-0.221,-15.261,-0.701,-15.055C-0.759,-15.03,-0.818,-15.001,-0.876,-14.975C-1.313,-14.783,-1.749,-14.571,-2.182,-14.337C-2.24,-14.305,-2.299,-14.276,-2.358,-14.243C-3.322,-13.709,-4.272,-13.067,-5.194,-12.309C-5.246,-12.265,-5.299,-12.222,-5.352,-12.178C-6.271,-11.405,-7.159,-10.511,-8.003,-9.486C-8.028,-9.455,-8.052,-9.426,-8.077,-9.395C-10.26,-4.129,-11.571,4.439,-12.049,16.531Z" /></g></g><g transform="matrix(1,0,0,1,22.143,27.223)" id="Capa 184 contornos"><g id="Grupo 1" transform="matrix(1,0,0,1,20.52,82.031)"><path fill="#ffffff" fill-opacity="1" d="M3.191,-80.627C2.983,-80.759,2.765,-80.89,2.527,-81.014C2.524,-81.016,2.52,-81.018,2.515,-81.02C1.978,-81.3,1.368,-81.558,0.702,-81.781C-3.026,-80.515,-7.004,-79.708,-11.448,-79.708C-11.525,-79.708,-11.603,-79.707,-11.681,-79.708L-11.707,-79.708C-16.452,-79.708,-19.067,-71.657,-20.27,-59.169C-17.616,-66.314,-14.531,-71.447,-10.984,-70.502C-6.983,-69.436,0.12,-56.391,1.727,-42.111C4.191,-20.221,3.36,12.647,1.246,30.77C-0.866,48.877,-4.492,69.268,-10.984,72.049C-11.574,72.302,-12.142,72.395,-12.691,72.354C-12.07,77.439,-11.681,80.386,-11.681,80.386C-11.681,80.386,-11.601,80.385,-11.451,80.385C-10.252,80.385,-4.53,80.461,1.724,81.781L1.725,81.781C1.936,81.641,2.147,81.489,2.359,81.329C2.377,81.315,2.394,81.301,2.411,81.287C2.605,81.14,2.797,80.982,2.99,80.817C3.024,80.789,3.056,80.761,3.089,80.732C3.266,80.578,3.444,80.414,3.621,80.243C3.666,80.2,3.711,80.158,3.756,80.113C3.921,79.951,4.086,79.778,4.251,79.601C4.306,79.541,4.36,79.484,4.416,79.423C4.57,79.252,4.725,79.07,4.879,78.885C4.942,78.81,5.004,78.736,5.067,78.658C5.216,78.474,5.365,78.277,5.514,78.079C5.58,77.992,5.646,77.908,5.711,77.818C5.864,77.607,6.017,77.384,6.17,77.157C6.229,77.069,6.289,76.986,6.348,76.895C6.559,76.574,6.769,76.239,6.978,75.887C15.155,62.131,20.061,42.159,20.258,-7.54C20.27,-10.668,20.248,-13.659,20.193,-16.524C20.192,-16.58,20.191,-16.635,20.19,-16.691C20.108,-20.899,19.956,-24.83,19.742,-28.505C19.734,-28.648,19.725,-28.79,19.717,-28.932C19.504,-32.485,19.233,-35.794,18.912,-38.88C18.787,-40.073,18.657,-41.24,18.518,-42.367C18.264,-44.42,17.986,-46.367,17.687,-48.212C17.537,-49.134,17.381,-50.031,17.221,-50.903C16.42,-55.267,15.49,-59.018,14.471,-62.253C14.063,-63.547,13.641,-64.759,13.207,-65.895C12.773,-67.03,12.327,-68.09,11.872,-69.08C9.367,-74.522,6.575,-77.854,3.901,-80.114L3.899,-80.114C3.724,-80.262,3.526,-80.407,3.314,-80.548C3.274,-80.575,3.232,-80.601,3.191,-80.627Z" /></g></g><g transform="matrix(1,0,0,1,28.455,191.23)" id="Capa 157 contornos"><g id="Grupo 1" transform="matrix(1,0,0,1,1.02,0.595)"><path fill="#314487" fill-opacity="1" d="M-0.679,0.344L0.77,0.324C0.258,0.134,-0.256,-0.09,-0.77,-0.344L-0.679,0.344Z" /></g></g><g transform="matrix(1,0,0,1,20.778,37.556)" id="Capa 47 contornos"><g id="Elipse 1" transform="matrix(1,0,0,1,2.722,77.944)"><path d="" /></g><g id="Elipse 2" transform="matrix(1,0,0,1,9.972,72.444)"><path fill="#cacac8" fill-opacity="1" d="M1.5,-81.5C-11.617,-81.5,-22.25,-45.011,-22.25,0C-22.25,45.011,-11.617,81.5,1.5,81.5C14.617,81.5,25.25,45.011,25.25,0C25.25,-45.011,14.617,-81.5,1.5,-81.5Z" /></g></g><g transform="matrix(1,0,0,1,28.979,57.428)" id="Capa 45 contornos"><g id="Grupo 1" transform="matrix(1,0,0,1,6.868,27.512)"><path fill="#314487" fill-opacity="1" d="M1.442,16.487C1.372,25.506,3.388,27.262,4.457,24.31C5.525,21.359,6.618,13.93,6.504,-0.241C6.438,-8.395,6.133,-14.421,3.505,-20.841C0.876,-27.261,-4.067,-22.204,-5.343,-16.021C-6.618,-9.838,-5.783,-8.044,-3.113,-4.853C-0.444,-1.662,1.513,7.469,1.442,16.487Z" /></g></g><g transform="matrix(1,0,0,1,23.031,142.923)" id="Capa 44 contornos"><g id="Grupo 1" transform="matrix(1,0,0,1,2.049,6.404)"><path fill="#ffffff" fill-opacity="1" d="M-0.524,-2.81C-0.947,-3.612,-1.379,-4.784,-1.798,-6.154C-1.394,-1.922,-0.985,2.159,-0.581,6.033C-0.444,6.052,-0.304,6.068,-0.162,6.083C0.514,6.153,1.169,5.75,1.798,4.779C1.531,2.194,1.261,-0.483,0.992,-3.233C0.556,-2.262,0.021,-1.778,-0.524,-2.81Z" /></g></g><g transform="matrix(1,0,0,1,20.524,104.251)" id="Capa 43 contornos"><g id="Grupo 1" transform="matrix(1,0,0,1,1.856,9.322)"><path fill="#ffffff" fill-opacity="1" d="M-1.007,7.708C-0.42,6.337,0.27,5.711,0.682,6.749C0.858,7.19,1.2,8.028,1.607,9.072C1.132,3.078,0.697,-3.016,0.331,-9.072C-0.246,-6.591,-0.941,-3.512,-1.607,-0.378C-1.515,0.927,-1.421,2.245,-1.322,3.577C-1.22,4.957,-1.114,6.334,-1.007,7.708Z" /></g></g><g transform="matrix(1,0,0,1,22.461,84.737)" id="Capa 42 contornos"><g id="Grupo 1" transform="matrix(1,0,0,1,6.78,34.809)"><path fill="#ffffff" fill-opacity="1" d="M-4.118,-13.953C-3.608,-18.535,-2.311,-23.319,-1.64,-23.835C-0.969,-24.351,-0.675,-21.466,-1.01,-19.552C-1.345,-17.638,-1.962,-16.993,-2.798,-11.533C-3.635,-6.072,-1.686,1.43,-0.25,1.086C1.186,0.741,1.569,-2.576,2.021,-5.833C2.142,-6.709,2.61,-7.741,3.06,-6.977C3.509,-6.212,3.334,-3.803,2.792,0.108C2.25,4.019,1.686,6.073,-0.083,6.967C-1.852,7.861,-2.475,4.915,-3.367,1.585C-4.851,-3.96,-4.738,-8.383,-4.118,-13.953ZM0.418,-11.061C0.699,-9.518,0.851,-7.151,0.672,-5.755C0.362,-3.342,-0.801,-1.935,-1.353,-5.198C-1.905,-8.46,-1.587,-11.856,-1.025,-12.693C-0.463,-13.531,0.137,-12.604,0.418,-11.061ZM-2.524,11.865C-1.992,15.386,-2.028,20.751,-2.188,22.68C-2.253,23.458,-2.637,25.364,-3.169,26.547C-2.9,29.297,-2.63,31.975,-2.362,34.56C-1.722,33.573,-1.111,31.998,-0.537,29.734C0.7,24.855,5.687,4.142,6.109,-2.56C6.53,-9.262,5.836,-21.423,3.849,-27.991C1.862,-34.559,0.499,-33.811,-0.662,-33.517C-1.823,-33.224,-4.415,-23.784,-5.58,-19.035C-5.815,-18.08,-6.146,-16.693,-6.53,-15.044C-6.164,-8.988,-5.73,-2.895,-5.255,3.099C-4.271,5.621,-2.901,9.376,-2.524,11.865Z" /></g></g><g transform="matrix(1,0,0,1,17.615,112.946)" id="Capa 41 contornos"><g id="Grupo 1" transform="matrix(1,0,0,1,3.567,21.332)"><path fill="#ffffff" fill-opacity="1" d="M0.015,16.282C1.162,20.39,2.145,20.915,3.317,21.082C2.913,17.208,2.504,13.128,2.099,8.896C0.494,3.659,-0.924,-4.637,-0.884,-7.701C-0.86,-9.612,-0.383,-11.658,0.19,-12.996C0.083,-14.37,-0.023,-15.747,-0.125,-17.127C-0.223,-18.46,-0.318,-19.778,-0.409,-21.082C-1.501,-15.945,-2.51,-10.672,-2.777,-7.701C-3.317,-1.715,-1.266,11.694,0.015,16.282Z" /></g></g><g transform="matrix(1,0,0,1,21.122,119.034)" id="Capa 40 contornos"><g id="Grupo 1" transform="matrix(1,0,0,1,2.6,14.383)"><path fill="#c9c9c7" fill-opacity="1" d="M2.35,12.677C1.626,5.276,0.908,-2.655,0.264,-10.771C-0.143,-11.815,-0.485,-12.653,-0.661,-13.094C-1.073,-14.133,-1.763,-13.507,-2.35,-12.135C-1.765,-4.622,-1.11,2.767,-0.441,9.757C-0.022,11.127,0.411,12.299,0.833,13.101C1.378,14.133,1.914,13.648,2.35,12.677Z" /></g></g><g transform="matrix(1,0,0,1,23.736,122.396)" id="Capa 39 contornos"><g id="Grupo 1" transform="matrix(1,0,0,1,1.882,11.974)"><path fill="#c9c9c7" fill-opacity="1" d="M1.435,7.856C1.595,5.926,1.631,0.562,1.098,-2.959C0.721,-5.449,-0.649,-9.203,-1.632,-11.724C-0.989,-3.608,-0.271,4.323,0.454,11.724C0.986,10.541,1.371,8.633,1.435,7.856Z" /></g></g><g transform="matrix(1,0,0,1,20.008,121.032)" id="Capa 38 contornos"><g id="Grupo 1" transform="matrix(1,0,0,1,1.761,11.197)"><path fill="#c9c9c7" fill-opacity="1" d="M-1.471,-5.652C-1.511,-2.588,-0.092,5.709,1.512,10.947C0.843,3.956,0.188,-3.433,-0.398,-10.947C-0.971,-9.609,-1.446,-7.562,-1.471,-5.652Z" /></g></g><g transform="matrix(1,0,0,1,27.086,105.765)" id="Capa 37 contornos"><g id="Grupo 1" transform="matrix(1,0,0,1,1.628,6.048)"><path fill="#c9c9c7" fill-opacity="1" d="M-0.826,2.535C-0.274,5.798,0.889,4.39,1.199,1.977C1.378,0.582,1.226,-1.785,0.945,-3.329C0.664,-4.872,0.064,-5.798,-0.498,-4.96C-1.06,-4.122,-1.378,-0.727,-0.826,2.535Z" /></g></g><g transform="matrix(1,0,0,1,24.14,94.946)" id="Capa 36 contornos"><g id="Grupo 1" transform="matrix(1,0,0,1,4.43,16.356)"><path fill="#c9c9c7" fill-opacity="1" d="M0.588,15.212C2.357,14.317,2.921,12.264,3.463,8.353C4.005,4.442,4.18,2.032,3.731,1.268C3.281,0.504,2.813,1.535,2.692,2.411C2.241,5.668,1.858,8.984,0.421,9.329C-1.015,9.674,-2.963,2.172,-2.127,-3.288C-1.29,-8.748,-0.673,-9.394,-0.338,-11.308C-0.003,-13.222,-0.298,-16.106,-0.969,-15.59C-1.64,-15.074,-2.936,-10.29,-3.447,-5.708C-4.067,-0.139,-4.18,4.283,-2.696,9.828C-1.804,13.158,-1.181,16.106,0.588,15.212Z" /></g></g><g transform="matrix(1,0,0,1,433.636,13.32)" id="Capa 28 contornos"><g id="Grupo 1" transform="matrix(1,0,0,1,19.711,9.747)"><path fill="#c9c9c7" fill-opacity="1" d="M-16.714,9.128C-14.963,8.759,-11.251,7.733,-9.726,6.992L19.462,-7.182C19.39,-7.226,19.317,-7.271,19.245,-7.315C18.639,-7.686,18.014,-8.039,17.365,-8.368C17.311,-8.395,17.262,-8.425,17.208,-8.452C16.523,-8.793,15.806,-9.103,15.071,-9.398C14.987,-9.432,14.9,-9.464,14.814,-9.497L-17.769,6.327C-19.462,7.149,-18.464,9.497,-16.714,9.128Z" /></g></g><g transform="matrix(1,0,0,1,398.587,10.125)" id="Capa 27 contornos"><g id="Grupo 1" transform="matrix(1,0,0,1,25.859,14.102)"><path fill="#c9c9c7" fill-opacity="1" d="M-23.996,13.127C-22.383,13.852,-19.482,12.47,-17.678,11.42L25.609,-13.767C24.462,-13.809,23.276,-13.833,22.06,-13.844C21.885,-13.846,21.712,-13.848,21.535,-13.849C21.096,-13.852,20.648,-13.85,20.199,-13.849C19.322,-13.845,18.433,-13.836,17.521,-13.818L-22.988,9.752C-24.917,10.875,-25.609,12.402,-23.996,13.127Z" /></g></g><g transform="matrix(1,0,0,1,326.024,12.093)" id="Capa 26 contornos"><g id="Grupo 1" transform="matrix(1,0,0,1,9.954,11.088)"><path fill="#c9c9c7" fill-opacity="1" d="M9.705,-10.839C8.032,-10.807,6.351,-10.775,4.665,-10.743L-9.705,10.357C-8.161,10.521,-6.612,10.682,-5.058,10.839L9.705,-10.839Z" /></g></g><g transform="matrix(1,0,0,1,336.192,11.811)" id="Capa 25 contornos"><g id="Grupo 1" transform="matrix(1,0,0,1,12.273,11.735)"><path fill="#c9c9c7" fill-opacity="1" d="M12.023,-11.485C10.225,-11.45,8.414,-11.416,6.59,-11.381L-12.023,11.019C-10.366,11.178,-8.713,11.333,-7.064,11.485L12.023,-11.485Z" /></g></g><g transform="matrix(1,0,0,1,347.68,11.473)" id="Capa 24 contornos"><g id="Grupo 1" transform="matrix(1,0,0,1,15.162,12.424)"><path fill="#c9c9c7" fill-opacity="1" d="M14.912,-12.174C12.955,-12.135,10.971,-12.096,8.966,-12.057L-14.912,11.717C-13.106,11.873,-11.311,12.027,-9.542,12.174L14.912,-12.174Z" /></g></g><g transform="matrix(1,0,0,1,361.077,11.057)" id="Capa 23 contornos"><g id="Grupo 1" transform="matrix(1,0,0,1,18.871,13.179)"><path fill="#c9c9c7" fill-opacity="1" d="M18.621,-12.93C16.467,-12.887,14.259,-12.841,11.999,-12.796L-18.621,12.479C-16.599,12.637,-14.624,12.787,-12.706,12.93L18.621,-12.93Z" /></g></g><g transform="matrix(1,0,0,1,317.614,12.316)" id="Capa 22 contornos"><g id="Grupo 1" transform="matrix(1,0,0,1,8.212,10.519)"><path fill="#c9c9c7" fill-opacity="1" d="M7.962,-10.27C6.378,-10.24,4.791,-10.21,3.201,-10.181L-7.962,9.764C-6.497,9.936,-5.021,10.104,-3.532,10.27L7.962,-10.27Z" /></g></g><g transform="matrix(1,0,0,1,309.808,12.515)" id="Capa 21 contornos"><g id="Grupo 1" transform="matrix(1,0,0,1,6.745,9.956)"><path fill="#c9c9c7" fill-opacity="1" d="M6.496,-9.706C4.982,-9.679,3.467,-9.651,1.951,-9.623L-6.496,9.168C-5.093,9.35,-3.669,9.529,-2.229,9.706L6.496,-9.706Z" /></g></g><g transform="matrix(1,0,0,1,302.418,12.694)" id="Capa 20 contornos"><g id="Grupo 1" transform="matrix(1,0,0,1,5.497,9.383)"><path fill="#c9c9c7" fill-opacity="1" d="M5.248,-9.134C3.787,-9.108,2.327,-9.082,0.868,-9.056L-5.248,8.547C-3.892,8.746,-2.507,8.941,-1.098,9.134L5.248,-9.134Z" /></g></g><g transform="matrix(1,0,0,1,295.275,12.858)" id="Capa 19 contornos"><g id="Grupo 1" transform="matrix(1,0,0,1,4.434,8.78)"><path fill="#c9c9c7" fill-opacity="1" d="M4.185,-8.53C2.763,-8.505,1.343,-8.481,-0.074,-8.456L-4.185,7.907C-2.818,8.119,-1.456,8.327,-0.1,8.53L4.185,-8.53Z" /></g></g><g transform="matrix(1,0,0,1,288.236,13.01)" id="Capa 18 contornos"><g id="Grupo 1" transform="matrix(1,0,0,1,3.537,8.16)"><path fill="#c9c9c7" fill-opacity="1" d="M3.288,-7.91C1.892,-7.886,0.501,-7.861,-0.888,-7.838L-3.288,7.257C-1.929,7.479,-0.577,7.695,0.771,7.91L3.288,-7.91Z" /></g></g><g transform="matrix(1,0,0,1,281.175,13.156)" id="Capa 17 contornos"><g id="Grupo 1" transform="matrix(1,0,0,1,2.79,7.51)"><path fill="#c9c9c7" fill-opacity="1" d="M2.54,-7.261C1.159,-7.238,-0.217,-7.214,-1.587,-7.192L-2.54,6.563C-1.178,6.8,0.181,7.033,1.534,7.261L2.54,-7.261Z" /></g></g><g transform="matrix(1,0,0,1,273.724,13.294)" id="Capa 16 contornos"><g id="Grupo 1" transform="matrix(1,0,0,1,2.433,6.821)"><path fill="#c9c9c7" fill-opacity="1" d="M1.928,-6.571C0.552,-6.549,-0.821,-6.527,-2.184,-6.505L-1.944,5.82C-0.563,6.076,0.812,6.325,2.184,6.571L1.928,-6.571Z" /></g></g><g transform="matrix(1,0,0,1,265.296,13.429)" id="Capa 15 contornos"><g id="Grupo 1" transform="matrix(1,0,0,1,2.946,6.068)"><path fill="#c9c9c7" fill-opacity="1" d="M1.434,-5.818C0.048,-5.797,-1.328,-5.775,-2.696,-5.754L-1.529,4.995C-0.118,5.275,1.29,5.55,2.696,5.818L1.434,-5.818Z" /></g></g><g transform="matrix(1,0,0,1,256.71,13.561)" id="Capa 14 contornos"><g id="Grupo 1" transform="matrix(1,0,0,1,3.333,5.23)"><path fill="#c9c9c7" fill-opacity="1" d="M1.098,-4.98C-0.306,-4.959,-1.701,-4.938,-3.083,-4.918L-1.292,4.066C0.17,4.378,1.627,4.682,3.083,4.98L1.098,-4.98Z" /></g></g><g transform="matrix(1,0,0,1,247.824,13.689)" id="Capa 13 contornos"><g id="Grupo 1" transform="matrix(1,0,0,1,3.563,4.27)"><path fill="#c9c9c7" fill-opacity="1" d="M0.955,-4.02C-0.483,-3.999,-1.904,-3.979,-3.313,-3.96L-1.276,2.981C0.256,3.334,1.787,3.682,3.313,4.02L0.955,-4.02Z" /></g></g><g transform="matrix(1,0,0,1,238.478,13.817)" id="Capa 12 contornos"><g id="Grupo 1" transform="matrix(1,0,0,1,3.577,3.13)"><path fill="#c9c9c7" fill-opacity="1" d="M1.068,-2.88C-0.417,-2.86,-1.882,-2.841,-3.327,-2.823L-1.562,1.677C0.07,2.087,1.699,2.489,3.327,2.88L1.068,-2.88Z" /></g></g><g transform="matrix(1,0,0,1,228.474,13.94)" id="Capa 11 contornos"><g id="Grupo 1" transform="matrix(1,0,0,1,3.27,1.728)"><path fill="#c9c9c7" fill-opacity="1" d="M1.548,-1.478C0.965,-1.471,0.408,-1.464,-0.166,-1.457C-0.627,-1.452,-1.087,-1.446,-1.542,-1.441C-2.032,-1.435,-2.537,-1.43,-3.02,-1.424L-2.293,0.035C-0.52,0.528,1.251,1.009,3.02,1.478L1.548,-1.478Z" /></g></g><g transform="matrix(1,0,0,1,375.146,10.551)" id="Capa 10 contornos"><g id="Grupo 1" transform="matrix(1,0,0,1,24.164,14.855)"><path fill="#c9c9c7" fill-opacity="1" d="M16.433,-14.45L-23.636,13.107C-23.504,13.442,-23.495,13.826,-23.623,14.163C-23.685,14.329,-23.79,14.474,-23.915,14.604L-18.557,14.604L23.915,-14.604C21.583,-14.555,19.083,-14.505,16.433,-14.45Z" /></g></g><g transform="matrix(1,0,0,1,441.716,10.128)" id="Capa 6 contornos"><g id="Grupo 1" transform="matrix(1,0,0,1,1.589,0.265)"><path fill="#314487" fill-opacity="1" d="M-1.336,0.014L-1.34,0.015C-0.428,-0.002,0.463,-0.011,1.34,-0.015C0.464,-0.011,-0.424,-0.004,-1.336,0.014Z" /></g></g><g transform="matrix(1,0,0,1,484.57,25.687)" id="Capa 2 contornos"><g id="Grupo 1" transform="matrix(1,0,0,1,13.566,80.862)"><path fill="#c9c9c7" fill-opacity="1" d="M8.008,-50.818C4.964,-63.308,1.68,-70.037,-7.574,-76.826C-9.792,-78.379,-12.061,-79.856,-13.316,-80.611C-12.781,-79.528,-9.8,-71.294,-9.434,-69.93C-1.85,-41.635,-1.264,-9.394,-2.108,12.671C-3.056,37.499,-6.36,62.573,-11.014,80.611C5.077,71.206,8.174,43.333,9.725,29.344C11.878,9.915,13.317,-29.029,8.008,-50.818Z" /></g></g></g><g id="comp_0"><g id="cara"><g transform="translate(310,310)"><animateTransform repeatCount="indefinite" type="translate" attributeName="transform" dur="4.033s" begin="0.033s" calcMode="spline" values="310 310; 310 320; 310 320; 310 310; 310 293; 310 295; 310 295; 310 318; 310 310" keyTimes="0; 0.025; 0.058; 0.091; 0.124; 0.174; 0.851; 0.926; 1" keySplines="0.333 0 0.667 1; 0 0 1 1; 0.333 0 0.667 1; 0.333 0 0.667 1; 0.333 0 0.667 1; 0 0 1 1; 0.333 0 0.667 1; 0.333 0 0.667 1" fill="freeze" /><g transform="rotate(0)"><animateTransform repeatCount="indefinite" type="rotate" attributeName="transform" dur="4.033s" begin="0.033s" calcMode="spline" values="0; 0; 0; 0; 0; 0; 0; 0; 0" keyTimes="0; 0.025; 0.058; 0.091; 0.124; 0.174; 0.851; 0.926; 1" keySplines="0.333 0 0.667 1; 0.333 0 0.667 1; 0.333 0 0.667 1; 0.333 0 0.667 1; 0.333 0 0.667 1; 0.333 0 0.667 1; 0.333 0 0.667 1; 0.333 0 0.667 1" fill="freeze" /><g transform="scale(1,1)"><animateTransform repeatCount="indefinite" type="scale" attributeName="transform" dur="4.033s" begin="0.033s" calcMode="spline" values="1 1; 1 1; 1 1; 1 1; 1 1; 1 1; 1 1; 1 1; 1 1" keyTimes="0; 0.025; 0.058; 0.091; 0.124; 0.174; 0.851; 0.926; 1" keySplines="0.333 0 0.667 1; 0.333 0 0.667 1; 0.333 0 0.667 1; 0.333 0 0.667 1; 0.333 0 0.667 1; 0.333 0 0.667 1; 0.333 0 0.667 1; 0.333 0 0.667 1" fill="freeze" /><g transform="translate(-294.5,-294.5)"><animateTransform repeatCount="indefinite" type="translate" attributeName="transform" dur="4.033s" begin="0.033s" calcMode="spline" values="-294.5 -294.5; -294.5 -294.5; -294.5 -294.5; -294.5 -294.5; -294.5 -294.5; -294.5 -294.5; -294.5 -294.5; -294.5 -294.5; -294.5 -294.5" keyTimes="0; 0.025; 0.058; 0.091; 0.124; 0.174; 0.851; 0.926; 1" keySplines="0 0 1 1; 0 0 1 1; 0 0 1 1; 0 0 1 1; 0 0 1 1; 0 0 1 1; 0 0 1 1; 0 0 1 1" fill="freeze" /><g opacity="1" id="torso"><animate repeatCount="indefinite" attributeName="opacity" dur="4.033333333333333s" begin="0.03333333333333333s" calcMode="spline" values="1; 1; 1; 1; 1; 1; 1; 1; 1" keyTimes="0; 0.025; 0.058; 0.091; 0.124; 0.174; 0.851; 0.926; 1" keySplines="0.333 0 0.667 1; 0.333 0 0.667 1; 0.333 0 0.667 1; 0.333 0 0.667 1; 0.333 0 0.667 1; 0.333 0 0.667 1; 0.333 0 0.667 1; 0.333 0 0.667 1" fill="freeze" /><g transform="translate(294.14,479.915)"><animateTransform repeatCount="indefinite" type="translate" attributeName="transform" dur="0.6s" begin="3.467s" calcMode="spline" values="294.14 479.915; 294.14 479.915; 294.14 479.915" keyTimes="0; 0.5; 1" keySplines="0 0 1 1; 0 0 1 1" fill="freeze" /><g transform="rotate(0)"><animateTransform repeatCount="indefinite" type="rotate" attributeName="transform" dur="4.033s" begin="0.033s" calcMode="spline" values="0; 0; 0; 0; 0; 0; 0; 0; 0" keyTimes="0; 0.025; 0.058; 0.091; 0.124; 0.174; 0.851; 0.926; 1" keySplines="0.333 0 0.667 1; 0.333 0 0.667 1; 0.333 0 0.667 1; 0.333 0 0.667 1; 0.333 0 0.667 1; 0.333 0 0.667 1; 0.333 0 0.667 1; 0.333 0 0.667 1" fill="freeze" /><g transform="scale(1,1)"><animateTransform repeatCount="indefinite" type="scale" attributeName="transform" dur="4.033s" begin="0.033s" calcMode="spline" values="1 1; 1 1; 1 1; 1 1; 1 1; 1 1; 1 1; 1 1; 1 1" keyTimes="0; 0.025; 0.058; 0.091; 0.124; 0.174; 0.851; 0.926; 1" keySplines="0.333 0 0.667 1; 0.333 0 0.667 1; 0.333 0 0.667 1; 0.333 0 0.667 1; 0.333 0 0.667 1; 0.333 0 0.667 1; 0.333 0 0.667 1; 0.333 0 0.667 1" fill="freeze" /><g transform="translate(-291.883,-220.424)"><animateTransform repeatCount="indefinite" type="translate" attributeName="transform" dur="4.033s" begin="0.033s" calcMode="spline" values="-291.883 -220.424; -291.883 -220.424; -291.883 -220.424; -291.883 -220.424; -291.883 -220.424; -291.883 -220.424; -291.883 -220.424; -291.883 -220.424; -291.883 -220.424" keyTimes="0; 0.025; 0.058; 0.091; 0.124; 0.174; 0.851; 0.926; 1" keySplines="0 0 1 1; 0 0 1 1; 0 0 1 1; 0 0 1 1; 0 0 1 1; 0 0 1 1; 0 0 1 1; 0 0 1 1" fill="freeze" /><g id="Grupo 1" transform="matrix(1,0,0,1,291.883,220.424)"><path fill="#312b29" fill-opacity="1" d="M144.677,-37.247C66.017,-96.316,91.326,-159.096,103.212,-220.174L0.841,-220.174L-0.841,-220.174L-103.212,-220.174C-91.326,-159.096,-66.018,-96.316,-144.678,-37.247C-210.313,12.041,-291.632,195.998,-176.027,220.174L-4.672,220.174L-2.352,220.174L-0.841,220.174L0.841,220.174L2.352,220.174L4.672,220.174L176.027,220.174C291.632,195.998,210.313,12.041,144.677,-37.247Z" /></g></g></g></g></g></g></g></g></g></g></g><g id="cara"><g transform="translate(310,310)"><animateTransform repeatCount="indefinite" type="translate" attributeName="transform" dur="4.033s" begin="0.033s" calcMode="spline" values="310 310; 310 320; 310 320; 310 310; 310 293; 310 295; 310 295; 310 318; 310 310" keyTimes="0; 0.025; 0.058; 0.091; 0.124; 0.174; 0.851; 0.926; 1" keySplines="0.333 0 0.667 1; 0 0 1 1; 0.333 0 0.667 1; 0.333 0 0.667 1; 0.333 0 0.667 1; 0 0 1 1; 0.333 0 0.667 1; 0.333 0 0.667 1" fill="freeze" /><g transform="rotate(0)"><animateTransform repeatCount="indefinite" type="rotate" attributeName="transform" dur="4.033s" begin="0.033s" calcMode="spline" values="0; 0; 0; 0; 0; 0; 0; 0; 0" keyTimes="0; 0.025; 0.058; 0.091; 0.124; 0.174; 0.851; 0.926; 1" keySplines="0.333 0 0.667 1; 0.333 0 0.667 1; 0.333 0 0.667 1; 0.333 0 0.667 1; 0.333 0 0.667 1; 0.333 0 0.667 1; 0.333 0 0.667 1; 0.333 0 0.667 1" fill="freeze" /><g transform="scale(1,1)"><animateTransform repeatCount="indefinite" type="scale" attributeName="transform" dur="4.033s" begin="0.033s" calcMode="spline" values="1 1; 1 1; 1 1; 1 1; 1 1; 1 1; 1 1; 1 1; 1 1" keyTimes="0; 0.025; 0.058; 0.091; 0.124; 0.174; 0.851; 0.926; 1" keySplines="0.333 0 0.667 1; 0.333 0 0.667 1; 0.333 0 0.667 1; 0.333 0 0.667 1; 0.333 0 0.667 1; 0.333 0 0.667 1; 0.333 0 0.667 1; 0.333 0 0.667 1" fill="freeze" /><g transform="translate(-294.5,-294.5)"><animateTransform repeatCount="indefinite" type="translate" attributeName="transform" dur="4.033s" begin="0.033s" calcMode="spline" values="-294.5 -294.5; -294.5 -294.5; -294.5 -294.5; -294.5 -294.5; -294.5 -294.5; -294.5 -294.5; -294.5 -294.5; -294.5 -294.5; -294.5 -294.5" keyTimes="0; 0.025; 0.058; 0.091; 0.124; 0.174; 0.851; 0.926; 1" keySplines="0 0 1 1; 0 0 1 1; 0 0 1 1; 0 0 1 1; 0 0 1 1; 0 0 1 1; 0 0 1 1; 0 0 1 1" fill="freeze" /><g transform="matrix(1,0,0,1,187.175,401.775)" id="correa"><g id="Grupo 1" transform="matrix(1,0,0,1,107.555,33.527)"><path fill="#c42329" fill-opacity="1" d="M0,3.81C-46.786,3.81,-86.574,-10.67,-101.255,-30.871C-103.004,-33.276,-107.294,-32.18,-107.305,-29.322L-107.305,-29.224C-107.305,-0.563,-59.263,33.276,0,33.276C59.263,33.276,107.305,-0.563,107.305,-29.224C107.305,-29.256,107.305,-29.29,107.304,-29.322C107.293,-32.18,103.003,-33.276,101.254,-30.871C86.574,-10.67,46.786,3.81,0,3.81Z" /></g></g></g></g></g></g></g><g opacity="1" id="cara"><animate repeatCount="indefinite" attributeName="opacity" dur="4.033333333333333s" begin="0.03333333333333333s" calcMode="spline" values="1; 1; 1; 1; 1; 1; 1; 1; 1" keyTimes="0; 0.025; 0.058; 0.091; 0.124; 0.174; 0.851; 0.926; 1" keySplines="0.333 0 0.667 1; 0.333 0 0.667 1; 0.333 0 0.667 1; 0.333 0 0.667 1; 0.333 0 0.667 1; 0.333 0 0.667 1; 0.333 0 0.667 1; 0.333 0 0.667 1" fill="freeze" /><g transform="translate(310,310)"><animateTransform repeatCount="indefinite" type="translate" attributeName="transform" dur="4.033s" begin="0.033s" calcMode="spline" values="310 310; 310 320; 310 320; 310 310; 310 293; 310 295; 310 295; 310 318; 310 310" keyTimes="0; 0.025; 0.058; 0.091; 0.124; 0.174; 0.851; 0.926; 1" keySplines="0.333 0 0.667 1; 0 0 1 1; 0.333 0 0.667 1; 0.333 0 0.667 1; 0.333 0 0.667 1; 0 0 1 1; 0.333 0 0.667 1; 0.333 0 0.667 1" fill="freeze" /><g transform="rotate(0)"><animateTransform repeatCount="indefinite" type="rotate" attributeName="transform" dur="4.033s" begin="0.033s" calcMode="spline" values="0; 0; 0; 0; 0; 0; 0; 0; 0" keyTimes="0; 0.025; 0.058; 0.091; 0.124; 0.174; 0.851; 0.926; 1" keySplines="0.333 0 0.667 1; 0.333 0 0.667 1; 0.333 0 0.667 1; 0.333 0 0.667 1; 0.333 0 0.667 1; 0.333 0 0.667 1; 0.333 0 0.667 1; 0.333 0 0.667 1" fill="freeze" /><g transform="scale(1,1)"><animateTransform repeatCount="indefinite" type="scale" attributeName="transform" dur="4.033s" begin="0.033s" calcMode="spline" values="1 1; 1 1; 1 1; 1 1; 1 1; 1 1; 1 1; 1 1; 1 1" keyTimes="0; 0.025; 0.058; 0.091; 0.124; 0.174; 0.851; 0.926; 1" keySplines="0.333 0 0.667 1; 0.333 0 0.667 1; 0.333 0 0.667 1; 0.333 0 0.667 1; 0.333 0 0.667 1; 0.333 0 0.667 1; 0.333 0 0.667 1; 0.333 0 0.667 1" fill="freeze" /><g transform="translate(-294.5,-294.5)"><animateTransform repeatCount="indefinite" type="translate" attributeName="transform" dur="4.033s" begin="0.033s" calcMode="spline" values="-294.5 -294.5; -294.5 -294.5; -294.5 -294.5; -294.5 -294.5; -294.5 -294.5; -294.5 -294.5; -294.5 -294.5; -294.5 -294.5; -294.5 -294.5" keyTimes="0; 0.025; 0.058; 0.091; 0.124; 0.174; 0.851; 0.926; 1" keySplines="0 0 1 1; 0 0 1 1; 0 0 1 1; 0 0 1 1; 0 0 1 1; 0 0 1 1; 0 0 1 1; 0 0 1 1" fill="freeze" /><use clip-path="url(#cp-589-589)" height="589" width="589" y="0" x="0" xlink:href="#comp_7" href="#comp_7" /></g></g></g></g></g><g opacity="1" id="base"><animate repeatCount="indefinite" attributeName="opacity" dur="4.033333333333333s" begin="0.03333333333333333s" calcMode="spline" values="1; 1; 1; 1; 1; 1; 1; 1; 1" keyTimes="0; 0.025; 0.058; 0.091; 0.124; 0.174; 0.851; 0.926; 1" keySplines="0.333 0 0.667 1; 0.333 0 0.667 1; 0.333 0 0.667 1; 0.333 0 0.667 1; 0.333 0 0.667 1; 0.333 0 0.667 1; 0.333 0 0.667 1; 0.333 0 0.667 1" fill="freeze" /><g transform="translate(309.639,203.274)"><animateTransform repeatCount="indefinite" type="translate" attributeName="transform" dur="4.033s" begin="0.033s" calcMode="spline" values="309.639 203.274; 309.639 213.274; 309.639 213.274; 309.639 203.274; 309.639 186.274; 309.639 188.274; 309.639 188.274; 309.639 211.274; 309.639 203.274" keyTimes="0; 0.025; 0.058; 0.091; 0.124; 0.174; 0.851; 0.926; 1" keySplines="0.333 0 0.667 1; 0 0 1 1; 0.333 0 0.667 1; 0.333 0 0.667 1; 0.333 0 0.667 1; 0 0 1 1; 0.333 0 0.667 1; 0.333 0 0.667 1" fill="freeze" /><g transform="rotate(0)"><animateTransform repeatCount="indefinite" type="rotate" attributeName="transform" dur="4.033s" begin="0.033s" calcMode="spline" values="0; 0; 0; 0; 0; 0; 0; 0; 0" keyTimes="0; 0.025; 0.058; 0.091; 0.124; 0.174; 0.851; 0.926; 1" keySplines="0.333 0 0.667 1; 0.333 0 0.667 1; 0.333 0 0.667 1; 0.333 0 0.667 1; 0.333 0 0.667 1; 0.333 0 0.667 1; 0.333 0 0.667 1; 0.333 0 0.667 1" fill="freeze" /><g transform="scale(1,1)"><animateTransform repeatCount="indefinite" type="scale" attributeName="transform" dur="4.033s" begin="0.033s" calcMode="spline" values="1 1; 1 1; 1 1; 1 1; 1 1; 1 1; 1 1; 1 1; 1 1" keyTimes="0; 0.025; 0.058; 0.091; 0.124; 0.174; 0.851; 0.926; 1" keySplines="0.333 0 0.667 1; 0.333 0 0.667 1; 0.333 0 0.667 1; 0.333 0 0.667 1; 0.333 0 0.667 1; 0.333 0 0.667 1; 0.333 0 0.667 1; 0.333 0 0.667 1" fill="freeze" /><g transform="translate(-65.757,-117.136)"><animateTransform repeatCount="indefinite" type="translate" attributeName="transform" dur="4.033s" begin="0.033s" calcMode="spline" values="-65.757 -117.136; -65.757 -117.136; -65.757 -117.136; -65.757 -117.136; -65.757 -117.136; -65.757 -117.136; -65.757 -117.136; -65.757 -117.136; -65.757 -117.136" keyTimes="0; 0.025; 0.058; 0.091; 0.124; 0.174; 0.851; 0.926; 1" keySplines="0 0 1 1; 0 0 1 1; 0 0 1 1; 0 0 1 1; 0 0 1 1; 0 0 1 1; 0 0 1 1; 0 0 1 1" fill="freeze" /><g id="Grupo 1" transform="matrix(1,0,0,1,65.757,117.136)"><path fill="#ffffff" fill-opacity="1" d="M19.362,-88.665C19.362,-87.03,19.616,-84.054,19.633,-76.828C19.665,-63.903,13.802,-12.039,32.12,13.425C40.604,25.218,65.508,56.434,65.508,76.564C65.508,91.043,59.135,102.662,47.079,110.165C36.279,116.886,21.117,113.336,2.012,113.336L0.191,113.336L-0.191,113.336L-2.011,113.336C-21.116,113.336,-36.279,116.886,-47.078,110.165C-59.135,102.662,-65.508,91.043,-65.508,76.564C-65.508,56.434,-40.604,25.218,-32.12,13.425C-13.802,-12.039,-19.665,-63.903,-19.633,-76.828C-19.616,-84.054,-19.361,-87.03,-19.361,-88.665C-19.361,-98.245,-11.383,-111.58,-6.047,-114.684C-2.263,-116.886,2.262,-116.886,6.048,-114.684C11.382,-111.58,19.362,-98.245,19.362,-88.665Z" /></g></g></g></g></g></g><g opacity="1" id="nariz"><animate repeatCount="indefinite" attributeName="opacity" dur="4.033333333333333s" begin="0.03333333333333333s" calcMode="spline" values="1; 1; 1; 1; 1; 1; 1; 1; 1; 1; 1; 1; 1" keyTimes="0; 0.025; 0.058; 0.091; 0.124; 0.174; 0.496; 0.521; 0.545; 0.57; 0.851; 0.926; 1" keySplines="0.333 0 0.667 1; 0.333 0 0.667 1; 0.333 0 0.667 1; 0.333 0 0.667 1; 0.333 0 0.667 1; 0.333 0 0.667 1; 0.333 0 0.667 1; 0.333 0 0.667 1; 0.333 0 0.667 1; 0.333 0 0.667 1; 0.333 0 0.667 1; 0.333 0 0.667 1" fill="freeze" /><g transform="translate(309.64,274.39)"><animateTransform repeatCount="indefinite" type="translate" attributeName="transform" dur="4.033s" begin="0.033s" calcMode="spline" values="309.64 274.39; 309.64 284.39; 309.64 284.39; 309.64 274.39; 309.64 257.39; 309.64 259.39; 309.64 259.39; 309.64 259.39; 309.64 259.39; 309.64 259.39; 309.64 259.39; 309.64 259.39; 309.64 282.39; 309.64 274.39" keyTimes="0; 0.025; 0.058; 0.091; 0.124; 0.174; 0.264; 0.496; 0.521; 0.545; 0.57; 0.851; 0.926; 1" keySplines="0.333 0 0.667 1; 0 0 1 1; 0.333 0 0.667 1; 0.333 0 0.667 1; 0.333 0 0.667 1; 0 0 1 1; 0 0 1 1; 0 0 1 1; 0 0 1 1; 0 0 1 1; 0 0 1 1; 0.333 0 0.667 1; 0.333 0 0.667 1" fill="freeze" /><g transform="rotate(0)"><animateTransform repeatCount="indefinite" type="rotate" attributeName="transform" dur="4.033s" begin="0.033s" calcMode="spline" values="0; 0; 0; 0; 0; 0; 0; 0; 0; 0; 0; 0; 0" keyTimes="0; 0.025; 0.058; 0.091; 0.124; 0.174; 0.496; 0.521; 0.545; 0.57; 0.851; 0.926; 1" keySplines="0.333 0 0.667 1; 0.333 0 0.667 1; 0.333 0 0.667 1; 0.333 0 0.667 1; 0.333 0 0.667 1; 0.333 0 0.667 1; 0.333 0 0.667 1; 0.333 0 0.667 1; 0.333 0 0.667 1; 0.333 0 0.667 1; 0.333 0 0.667 1; 0.333 0 0.667 1" fill="freeze" /><g transform="scale(1,1)"><animateTransform repeatCount="indefinite" type="scale" attributeName="transform" dur="4.033s" begin="0.033s" calcMode="spline" values="1 1; 1 1; 1 1; 1 1; 1 1; 1 1; 1 1; 1 0.93; 1 1; 1 1; 1 1; 1 1; 1 1" keyTimes="0; 0.025; 0.058; 0.091; 0.124; 0.174; 0.496; 0.521; 0.545; 0.57; 0.851; 0.926; 1" keySplines="0.333 0 0.667 1; 0.333 0 0.667 1; 0.333 0 0.667 1; 0.333 0 0.667 1; 0.333 0 0.667 1; 0.333 0 0.667 1; 0.333 0 0.667 1; 0.333 0 0.667 1; 0.333 0 0.667 1; 0.333 0 0.667 1; 0.333 0 0.667 1; 0.333 0 0.667 1" fill="freeze" /><g transform="translate(-35.447,-29.022)"><animateTransform repeatCount="indefinite" type="translate" attributeName="transform" dur="4.033s" begin="0.033s" calcMode="spline" values="-35.447 -29.022; -35.447 -29.022; -35.447 -29.022; -35.447 -29.022; -35.447 -29.022; -35.447 -29.022; -35.447 -29.022; -35.447 -29.022; -35.447 -29.022; -35.447 -29.022; -35.447 -29.022; -35.447 -29.022; -35.447 -29.022" keyTimes="0; 0.025; 0.058; 0.091; 0.124; 0.174; 0.496; 0.521; 0.545; 0.57; 0.851; 0.926; 1" keySplines="0 0 1 1; 0 0 1 1; 0 0 1 1; 0 0 1 1; 0 0 1 1; 0 0 1 1; 0 0 1 1; 0 0 1 1; 0 0 1 1; 0 0 1 1; 0 0 1 1; 0 0 1 1" fill="freeze" /><g id="Grupo 1" transform="matrix(1,0,0,1,35.447,29.023)"><path fill="#312b29" fill-opacity="1" d="M32.097,-13.669C31.232,-16.103,30.376,-18.734,28.485,-20.439C21.205,-26.997,8.137,-28.773,1.164,-28.63C0.388,-28.614,-0.388,-28.614,-1.165,-28.63C-8.138,-28.773,-21.206,-26.997,-28.486,-20.439C-30.377,-18.734,-31.233,-16.103,-32.098,-13.669C-34.319,-7.425,-35.197,0.07,-31.448,5.48C-29.354,8.501,-9.763,24.873,-6.509,26.605C-2.438,28.772,2.438,28.772,6.509,26.605C9.763,24.873,29.354,8.501,31.448,5.48C35.197,0.07,34.318,-7.425,32.097,-13.669Z" /></g></g></g></g></g></g><g opacity="1" id="orejas"><animate repeatCount="indefinite" attributeName="opacity" dur="4.066666666666666s" begin="0.03333333333333333s" calcMode="spline" values="1; 1; 1; 1; 1; 1; 1; 1; 1" keyTimes="0; 0.025; 0.057; 0.09; 0.123; 0.172; 0.852; 0.926; 1" keySplines="0.333 0 0.667 1; 0.333 0 0.667 1; 0.333 0 0.667 1; 0.333 0 0.667 1; 0.333 0 0.667 1; 0.333 0 0.667 1; 0.333 0 0.667 1; 0.333 0 0.667 1" fill="freeze" /><g transform="translate(310,310)"><animateTransform repeatCount="indefinite" type="translate" attributeName="transform" dur="4.067s" begin="0.033s" calcMode="spline" values="310 310; 310 320; 310 320; 310 310; 310 293; 310 295; 310 295; 310 318; 310 310" keyTimes="0; 0.025; 0.057; 0.09; 0.123; 0.172; 0.852; 0.926; 1" keySplines="0.333 0 0.667 1; 0 0 1 1; 0.333 0 0.667 1; 0.333 0 0.667 1; 0.333 0 0.667 1; 0 0 1 1; 0.333 0 0.667 1; 0.333 0 0.667 1" fill="freeze" /><g transform="rotate(0)"><animateTransform repeatCount="indefinite" type="rotate" attributeName="transform" dur="4.067s" begin="0.033s" calcMode="spline" values="0; 0; 0; 0; 0; 0; 0; 0; 0" keyTimes="0; 0.025; 0.057; 0.09; 0.123; 0.172; 0.852; 0.926; 1" keySplines="0.333 0 0.667 1; 0.333 0 0.667 1; 0.333 0 0.667 1; 0.333 0 0.667 1; 0.333 0 0.667 1; 0.333 0 0.667 1; 0.333 0 0.667 1; 0.333 0 0.667 1" fill="freeze" /><g transform="scale(1,1)"><animateTransform repeatCount="indefinite" type="scale" attributeName="transform" dur="4.067s" begin="0.033s" calcMode="spline" values="1 1; 1 1; 1 1; 1 1; 1 1; 1 1; 1 1; 1 1; 1 1" keyTimes="0; 0.025; 0.057; 0.09; 0.123; 0.172; 0.852; 0.926; 1" keySplines="0.333 0 0.667 1; 0.333 0 0.667 1; 0.333 0 0.667 1; 0.333 0 0.667 1; 0.333 0 0.667 1; 0.333 0 0.667 1; 0.333 0 0.667 1; 0.333 0 0.667 1" fill="freeze" /><g transform="translate(-294.5,-294.5)"><animateTransform repeatCount="indefinite" type="translate" attributeName="transform" dur="4.067s" begin="0.033s" calcMode="spline" values="-294.5 -294.5; -294.5 -294.5; -294.5 -294.5; -294.5 -294.5; -294.5 -294.5; -294.5 -294.5; -294.5 -294.5; -294.5 -294.5; -294.5 -294.5" keyTimes="0; 0.025; 0.057; 0.09; 0.123; 0.172; 0.852; 0.926; 1" keySplines="0 0 1 1; 0 0 1 1; 0 0 1 1; 0 0 1 1; 0 0 1 1; 0 0 1 1; 0 0 1 1; 0 0 1 1" fill="freeze" /><use clip-path="url(#cp-589-589)" height="589" width="589" y="0" x="0" xlink:href="#comp_6" href="#comp_6" /></g></g></g></g></g><g opacity="1" id="ojos"><animate repeatCount="indefinite" attributeName="opacity" dur="4.033333333333333s" begin="0.03333333333333333s" calcMode="spline" values="1; 1; 1; 1; 1; 1; 1; 1; 1" keyTimes="0; 0.025; 0.058; 0.091; 0.124; 0.174; 0.851; 0.926; 1" keySplines="0.333 0 0.667 1; 0.333 0 0.667 1; 0.333 0 0.667 1; 0.333 0 0.667 1; 0.333 0 0.667 1; 0.333 0 0.667 1; 0.333 0 0.667 1; 0.333 0 0.667 1" fill="freeze" /><g transform="translate(310,310)"><animateTransform repeatCount="indefinite" type="translate" attributeName="transform" dur="4.033s" begin="0.033s" calcMode="spline" values="310 310; 310 320; 310 320; 310 310; 310 293; 310 295; 310 295; 310 318; 310 310" keyTimes="0; 0.025; 0.058; 0.091; 0.124; 0.174; 0.851; 0.926; 1" keySplines="0.333 0 0.667 1; 0 0 1 1; 0.333 0 0.667 1; 0.333 0 0.667 1; 0.333 0 0.667 1; 0 0 1 1; 0.333 0 0.667 1; 0.333 0 0.667 1" fill="freeze" /><g transform="rotate(0)"><animateTransform repeatCount="indefinite" type="rotate" attributeName="transform" dur="4.033s" begin="0.033s" calcMode="spline" values="0; 0; 0; 0; 0; 0; 0; 0; 0" keyTimes="0; 0.025; 0.058; 0.091; 0.124; 0.174; 0.851; 0.926; 1" keySplines="0.333 0 0.667 1; 0.333 0 0.667 1; 0.333 0 0.667 1; 0.333 0 0.667 1; 0.333 0 0.667 1; 0.333 0 0.667 1; 0.333 0 0.667 1; 0.333 0 0.667 1" fill="freeze" /><g transform="scale(1,1)"><animateTransform repeatCount="indefinite" type="scale" attributeName="transform" dur="4.033s" begin="0.033s" calcMode="spline" values="1 1; 1 1; 1 1; 1 1; 1 1; 1 1; 1 1; 1 1; 1 1" keyTimes="0; 0.025; 0.058; 0.091; 0.124; 0.174; 0.851; 0.926; 1" keySplines="0.333 0 0.667 1; 0.333 0 0.667 1; 0.333 0 0.667 1; 0.333 0 0.667 1; 0.333 0 0.667 1; 0.333 0 0.667 1; 0.333 0 0.667 1; 0.333 0 0.667 1" fill="freeze" /><g transform="translate(-294.5,-294.5)"><animateTransform repeatCount="indefinite" type="translate" attributeName="transform" dur="4.033s" begin="0.033s" calcMode="spline" values="-294.5 -294.5; -294.5 -294.5; -294.5 -294.5; -294.5 -294.5; -294.5 -294.5; -294.5 -294.5; -294.5 -294.5; -294.5 -294.5; -294.5 -294.5" keyTimes="0; 0.025; 0.058; 0.091; 0.124; 0.174; 0.851; 0.926; 1" keySplines="0 0 1 1; 0 0 1 1; 0 0 1 1; 0 0 1 1; 0 0 1 1; 0 0 1 1; 0 0 1 1; 0 0 1 1" fill="freeze" /><use clip-path="url(#cp-589-589)" height="589" width="589" y="0" x="0" xlink:href="#comp_3" href="#comp_3" /></g></g></g></g></g><g opacity="1" id="cejaIzq"><animate repeatCount="indefinite" attributeName="opacity" dur="4.033333333333333s" begin="0.03333333333333333s" calcMode="spline" values="1; 1; 1; 1; 1; 1; 1; 1; 1" keyTimes="0; 0.025; 0.058; 0.091; 0.124; 0.174; 0.851; 0.926; 1" keySplines="0.333 0 0.667 1; 0.333 0 0.667 1; 0.333 0 0.667 1; 0.333 0 0.667 1; 0.333 0 0.667 1; 0.333 0 0.667 1; 0.333 0 0.667 1; 0.333 0 0.667 1" fill="freeze" /><g transform="translate(244.133,151.841)"><animateTransform repeatCount="indefinite" type="translate" attributeName="transform" dur="4.033s" begin="0.033s" calcMode="spline" values="244.133 151.841; 244.133 161.841; 244.133 161.841; 244.133 151.841; 244.133 114.841; 244.133 116.841; 244.133 116.841; 244.133 159.841; 244.133 151.841" keyTimes="0; 0.025; 0.058; 0.091; 0.124; 0.174; 0.851; 0.926; 1" keySplines="0.333 0 0.667 1; 0 0 1 1; 0.333 0 0.667 1; 0.333 0 0.667 1; 0.333 0 0.667 1; 0 0 1 1; 0.333 0 0.667 1; 0.333 0 0.667 1" fill="freeze" /><g transform="rotate(0)"><animateTransform repeatCount="indefinite" type="rotate" attributeName="transform" dur="4.033s" begin="0.033s" calcMode="spline" values="0; 0; 0; 0; 0; 0; 0; 0; 0" keyTimes="0; 0.025; 0.058; 0.091; 0.124; 0.174; 0.851; 0.926; 1" keySplines="0.333 0 0.667 1; 0.333 0 0.667 1; 0.333 0 0.667 1; 0.333 0 0.667 1; 0.333 0 0.667 1; 0.333 0 0.667 1; 0.333 0 0.667 1; 0.333 0 0.667 1" fill="freeze" /><g transform="scale(1,1)"><animateTransform repeatCount="indefinite" type="scale" attributeName="transform" dur="4.033s" begin="0.033s" calcMode="spline" values="1 1; 1 1; 1 1; 1 1; 1 1; 1 1; 1 1; 1 1; 1 1" keyTimes="0; 0.025; 0.058; 0.091; 0.124; 0.174; 0.851; 0.926; 1" keySplines="0.333 0 0.667 1; 0.333 0 0.667 1; 0.333 0 0.667 1; 0.333 0 0.667 1; 0.333 0 0.667 1; 0.333 0 0.667 1; 0.333 0 0.667 1; 0.333 0 0.667 1" fill="freeze" /><g transform="translate(-15.255,-11.827)"><animateTransform repeatCount="indefinite" type="translate" attributeName="transform" dur="4.033s" begin="0.033s" calcMode="spline" values="-15.255 -11.827; -15.255 -11.827; -15.255 -11.827; -15.255 -11.827; -15.255 -11.827; -15.255 -11.827; -15.255 -11.827; -15.255 -11.827; -15.255 -11.827" keyTimes="0; 0.025; 0.058; 0.091; 0.124; 0.174; 0.851; 0.926; 1" keySplines="0 0 1 1; 0 0 1 1; 0 0 1 1; 0 0 1 1; 0 0 1 1; 0 0 1 1; 0 0 1 1; 0 0 1 1" fill="freeze" /><g id="Grupo 1" transform="matrix(1,0,0,1,15.255,11.827)"><path fill="#d36f24" fill-opacity="1" d="M14.961,-1.873C15.005,-4.027,14.049,-6.064,12.451,-7.513C9.419,-10.259,5.012,-11.577,0.884,-10.763C-1.227,-10.347,-3.207,-9.438,-5.164,-8.537C-7.469,-7.475,-9.812,-6.388,-11.705,-4.711C-13.598,-3.034,-15.005,-0.646,-14.857,1.815C-14.731,3.897,-13.513,5.774,-11.945,7.157C-10.377,8.54,-8.471,9.499,-6.588,10.442C-5.63,10.921,-4.64,11.41,-3.559,11.481C-2.087,11.577,-0.676,10.89,0.639,10.205C3.988,8.459,7.061,6.204,10.489,4.619C14.038,2.978,14.917,0.288,14.961,-1.873Z" /></g></g></g></g></g></g><g opacity="1" id="cejaDer"><animate repeatCount="indefinite" attributeName="opacity" dur="4.033333333333333s" begin="0.03333333333333333s" calcMode="spline" values="1; 1; 1; 1; 1; 1; 1; 1; 1" keyTimes="0; 0.025; 0.058; 0.091; 0.124; 0.174; 0.851; 0.926; 1" keySplines="0.333 0 0.667 1; 0.333 0 0.667 1; 0.333 0 0.667 1; 0.333 0 0.667 1; 0.333 0 0.667 1; 0.333 0 0.667 1; 0.333 0 0.667 1; 0.333 0 0.667 1" fill="freeze" /><g transform="translate(375.147,151.841)"><animateTransform repeatCount="indefinite" type="translate" attributeName="transform" dur="4.033s" begin="0.033s" calcMode="spline" values="375.147 151.841; 375.147 161.841; 375.147 161.841; 375.147 151.841; 375.147 115.841; 375.147 117.841; 375.147 117.841; 375.147 159.841; 375.147 151.841" keyTimes="0; 0.025; 0.058; 0.091; 0.124; 0.174; 0.851; 0.926; 1" keySplines="0.333 0 0.667 1; 0 0 1 1; 0.333 0 0.667 1; 0.333 0 0.667 1; 0.333 0 0.667 1; 0 0 1 1; 0.333 0 0.667 1; 0.333 0 0.667 1" fill="freeze" /><g transform="rotate(0)"><animateTransform repeatCount="indefinite" type="rotate" attributeName="transform" dur="4.033s" begin="0.033s" calcMode="spline" values="0; 0; 0; 0; 0; 0; 0; 0; 0" keyTimes="0; 0.025; 0.058; 0.091; 0.124; 0.174; 0.851; 0.926; 1" keySplines="0.333 0 0.667 1; 0.333 0 0.667 1; 0.333 0 0.667 1; 0.333 0 0.667 1; 0.333 0 0.667 1; 0.333 0 0.667 1; 0.333 0 0.667 1; 0.333 0 0.667 1" fill="freeze" /><g transform="scale(1,1)"><animateTransform repeatCount="indefinite" type="scale" attributeName="transform" dur="4.033s" begin="0.033s" calcMode="spline" values="1 1; 1 1; 1 1; 1 1; 1 1; 1 1; 1 1; 1 1; 1 1" keyTimes="0; 0.025; 0.058; 0.091; 0.124; 0.174; 0.851; 0.926; 1" keySplines="0.333 0 0.667 1; 0.333 0 0.667 1; 0.333 0 0.667 1; 0.333 0 0.667 1; 0.333 0 0.667 1; 0.333 0 0.667 1; 0.333 0 0.667 1; 0.333 0 0.667 1" fill="freeze" /><g transform="translate(-15.256,-11.827)"><animateTransform repeatCount="indefinite" type="translate" attributeName="transform" dur="4.033s" begin="0.033s" calcMode="spline" values="-15.256 -11.827; -15.256 -11.827; -15.256 -11.827; -15.256 -11.827; -15.256 -11.827; -15.256 -11.827; -15.256 -11.827; -15.256 -11.827; -15.256 -11.827" keyTimes="0; 0.025; 0.058; 0.091; 0.124; 0.174; 0.851; 0.926; 1" keySplines="0 0 1 1; 0 0 1 1; 0 0 1 1; 0 0 1 1; 0 0 1 1; 0 0 1 1; 0 0 1 1; 0 0 1 1" fill="freeze" /><g id="Grupo 1" transform="matrix(1,0,0,1,15.255,11.827)"><path fill="#d36f24" fill-opacity="1" d="M-14.961,-1.873C-15.005,-4.027,-14.05,-6.064,-12.451,-7.513C-9.419,-10.259,-5.012,-11.577,-0.884,-10.763C1.227,-10.347,3.208,-9.438,5.164,-8.537C7.469,-7.475,9.811,-6.388,11.704,-4.711C13.597,-3.034,15.006,-0.646,14.857,1.815C14.731,3.897,13.513,5.774,11.944,7.157C10.376,8.54,8.471,9.499,6.587,10.442C5.63,10.921,4.641,11.41,3.559,11.481C2.088,11.577,0.675,10.89,-0.641,10.205C-3.988,8.459,-7.062,6.204,-10.49,4.619C-14.039,2.978,-14.917,0.288,-14.961,-1.873Z" /></g></g></g></g></g></g><g opacity="1" id="boca"><animate repeatCount="indefinite" attributeName="opacity" dur="4.033333333333333s" begin="0.03333333333333333s" calcMode="spline" values="1; 1; 1; 1; 1; 1; 1; 1; 1" keyTimes="0; 0.025; 0.058; 0.091; 0.124; 0.174; 0.851; 0.926; 1" keySplines="0.333 0 0.667 1; 0.333 0 0.667 1; 0.333 0 0.667 1; 0.333 0 0.667 1; 0.333 0 0.667 1; 0.333 0 0.667 1; 0.333 0 0.667 1; 0.333 0 0.667 1" fill="freeze" /><g transform="translate(310,310)"><animateTransform repeatCount="indefinite" type="translate" attributeName="transform" dur="4.033s" begin="0.033s" calcMode="spline" values="310 310; 310 320; 310 320; 310 310; 310 293; 310 295; 310 295; 310 318; 310 310" keyTimes="0; 0.025; 0.058; 0.091; 0.124; 0.174; 0.851; 0.926; 1" keySplines="0.333 0 0.667 1; 0 0 1 1; 0.333 0 0.667 1; 0.333 0 0.667 1; 0.333 0 0.667 1; 0 0 1 1; 0.333 0 0.667 1; 0.333 0 0.667 1" fill="freeze" /><g transform="rotate(0)"><animateTransform repeatCount="indefinite" type="rotate" attributeName="transform" dur="4.033s" begin="0.033s" calcMode="spline" values="0; 0; 0; 0; 0; 0; 0; 0; 0" keyTimes="0; 0.025; 0.058; 0.091; 0.124; 0.174; 0.851; 0.926; 1" keySplines="0.333 0 0.667 1; 0.333 0 0.667 1; 0.333 0 0.667 1; 0.333 0 0.667 1; 0.333 0 0.667 1; 0.333 0 0.667 1; 0.333 0 0.667 1; 0.333 0 0.667 1" fill="freeze" /><g transform="scale(1,1)"><animateTransform repeatCount="indefinite" type="scale" attributeName="transform" dur="4.033s" begin="0.033s" calcMode="spline" values="1 1; 1 1; 1 1; 1 1; 1 1; 1 1; 1 1; 1 1; 1 1" keyTimes="0; 0.025; 0.058; 0.091; 0.124; 0.174; 0.851; 0.926; 1" keySplines="0.333 0 0.667 1; 0.333 0 0.667 1; 0.333 0 0.667 1; 0.333 0 0.667 1; 0.333 0 0.667 1; 0.333 0 0.667 1; 0.333 0 0.667 1; 0.333 0 0.667 1" fill="freeze" /><g transform="translate(-294.5,-294.5)"><animateTransform repeatCount="indefinite" type="translate" attributeName="transform" dur="4.033s" begin="0.033s" calcMode="spline" values="-294.5 -294.5; -294.5 -294.5; -294.5 -294.5; -294.5 -294.5; -294.5 -294.5; -294.5 -294.5; -294.5 -294.5; -294.5 -294.5; -294.5 -294.5" keyTimes="0; 0.025; 0.058; 0.091; 0.124; 0.174; 0.851; 0.926; 1" keySplines="0 0 1 1; 0 0 1 1; 0 0 1 1; 0 0 1 1; 0 0 1 1; 0 0 1 1; 0 0 1 1; 0 0 1 1" fill="freeze" /><use clip-path="url(#cp-589-589)" height="589" width="589" y="0" x="0" xlink:href="#comp_2" href="#comp_2" /></g></g></g></g></g><g id="cara"><g transform="translate(310,310)"><animateTransform repeatCount="indefinite" type="translate" attributeName="transform" dur="4.033s" begin="0.033s" calcMode="spline" values="310 310; 310 320; 310 320; 310 310; 310 293; 310 295; 310 295; 310 318; 310 310" keyTimes="0; 0.025; 0.058; 0.091; 0.124; 0.174; 0.851; 0.926; 1" keySplines="0.333 0 0.667 1; 0 0 1 1; 0.333 0 0.667 1; 0.333 0 0.667 1; 0.333 0 0.667 1; 0 0 1 1; 0.333 0 0.667 1; 0.333 0 0.667 1" fill="freeze" /><g transform="rotate(0)"><animateTransform repeatCount="indefinite" type="rotate" attributeName="transform" dur="4.033s" begin="0.033s" calcMode="spline" values="0; 0; 0; 0; 0; 0; 0; 0; 0" keyTimes="0; 0.025; 0.058; 0.091; 0.124; 0.174; 0.851; 0.926; 1" keySplines="0.333 0 0.667 1; 0.333 0 0.667 1; 0.333 0 0.667 1; 0.333 0 0.667 1; 0.333 0 0.667 1; 0.333 0 0.667 1; 0.333 0 0.667 1; 0.333 0 0.667 1" fill="freeze" /><g transform="scale(1,1)"><animateTransform repeatCount="indefinite" type="scale" attributeName="transform" dur="4.033s" begin="0.033s" calcMode="spline" values="1 1; 1 1; 1 1; 1 1; 1 1; 1 1; 1 1; 1 1; 1 1" keyTimes="0; 0.025; 0.058; 0.091; 0.124; 0.174; 0.851; 0.926; 1" keySplines="0.333 0 0.667 1; 0.333 0 0.667 1; 0.333 0 0.667 1; 0.333 0 0.667 1; 0.333 0 0.667 1; 0.333 0 0.667 1; 0.333 0 0.667 1; 0.333 0 0.667 1" fill="freeze" /><g transform="translate(-294.5,-294.5)"><animateTransform repeatCount="indefinite" type="translate" attributeName="transform" dur="4.033s" begin="0.033s" calcMode="spline" values="-294.5 -294.5; -294.5 -294.5; -294.5 -294.5; -294.5 -294.5; -294.5 -294.5; -294.5 -294.5; -294.5 -294.5; -294.5 -294.5; -294.5 -294.5" keyTimes="0; 0.025; 0.058; 0.091; 0.124; 0.174; 0.851; 0.926; 1" keySplines="0 0 1 1; 0 0 1 1; 0 0 1 1; 0 0 1 1; 0 0 1 1; 0 0 1 1; 0 0 1 1; 0 0 1 1" fill="freeze" /><g transform="matrix(0.611,0,0,0.611,131.708,451.265)" id="latasola"><use clip-path="url(#cp-520-230)" height="230" width="520" y="0" x="0" xlink:href="#comp_1" href="#comp_1" /></g></g></g></g></g></g></g></defs><g opacity="1" id="perro"><animate repeatCount="indefinite" attributeName="opacity" dur="7.933333333333334s" begin="0s" calcMode="spline" values="1; 1; 1; 1; 1; 1; 1; 1; 1; 1; 1; 1; 1; 1; 1; 1; 1; 1; 1; 1; 1; 1; 1; 1; 1; 1; 1; 1; 1; 1; 1; 1; 1; 1; 1" keyTimes="0; 0.029; 0.059; 0.088; 0.118; 0.147; 0.176; 0.206; 0.235; 0.265; 0.294; 0.324; 0.353; 0.382; 0.412; 0.441; 0.471; 0.5; 0.529; 0.559; 0.588; 0.618; 0.647; 0.676; 0.706; 0.735; 0.765; 0.794; 0.824; 0.853; 0.882; 0.912; 0.941; 0.971; 1" keySplines="0.333 0 0.667 1; 0.333 0 0.667 1; 0.333 0 0.667 1; 0.333 0 0.667 1; 0.333 0 0.667 1; 0.333 0 0.667 1; 0.333 0 0.667 1; 0.333 0 0.667 1; 0.333 0 0.667 1; 0.333 0 0.667 1; 0.333 0 0.667 1; 0.333 0 0.667 1; 0.333 0 0.667 1; 0.333 0 0.667 1; 0.333 0 0.667 1; 0.333 0 0.667 1; 0.333 0 0.667 1; 0.333 0 0.667 1; 0.333 0 0.667 1; 0.333 0 0.667 1; 0.333 0 0.667 1; 0.333 0 0.667 1; 0.333 0 0.667 1; 0.333 0 0.667 1; 0.333 0 0.667 1; 0.333 0 0.667 1; 0.333 0 0.667 1; 0.333 0 0.667 1; 0.333 0 0.667 1; 0.333 0 0.667 1; 0.333 0 0.667 1; 0.333 0 0.667 1; 0.333 0 0.667 1; 0.333 0 0.667 1" fill="freeze" /><g transform="translate(310,310)"><animateTransform repeatCount="indefinite" type="translate" attributeName="transform" dur="7.933s" begin="0s" calcMode="spline" values="310 310; 310 314; 310 310; 310 314; 310 310; 310 314; 310 310; 310 314; 310 310; 310 314; 310 310; 310 314; 310 310; 310 314; 310 310; 310 314; 310 310; 310 314; 310 310; 310 314; 310 310; 310 314; 310 310; 310 314; 310 310; 310 314; 310 310; 310 314; 310 310; 310 314; 310 310; 310 314; 310 310; 310 314; 310 310" keyTimes="0; 0.029; 0.059; 0.088; 0.118; 0.147; 0.176; 0.206; 0.235; 0.265; 0.294; 0.324; 0.353; 0.382; 0.412; 0.441; 0.471; 0.5; 0.529; 0.559; 0.588; 0.618; 0.647; 0.676; 0.706; 0.735; 0.765; 0.794; 0.824; 0.853; 0.882; 0.912; 0.941; 0.971; 1" keySplines="0.333 0 0.667 1; 0.333 0 0.667 1; 0.333 0 0.667 1; 0.333 0 0.667 1; 0.333 0 0.667 1; 0.333 0 0.667 1; 0.333 0 0.667 1; 0.333 0 0.667 1; 0.333 0 0.667 1; 0.333 0 0.667 1; 0.333 0 0.667 1; 0.333 0 0.667 1; 0.333 0 0.667 1; 0.333 0 0.667 1; 0.333 0 0.667 1; 0.333 0 0.667 1; 0.333 0 0.667 1; 0.333 0 0.667 1; 0.333 0 0.667 1; 0.333 0 0.667 1; 0.333 0 0.667 1; 0.333 0 0.667 1; 0.333 0 0.667 1; 0.333 0 0.667 1; 0.333 0 0.667 1; 0.333 0 0.667 1; 0.333 0 0.667 1; 0.333 0 0.667 1; 0.333 0 0.667 1; 0.333 0 0.667 1; 0.333 0 0.667 1; 0.333 0 0.667 1; 0.333 0 0.667 1; 0.333 0 0.667 1" fill="freeze" /><g transform="rotate(0)"><animateTransform repeatCount="indefinite" type="rotate" attributeName="transform" dur="7.933s" begin="0s" calcMode="spline" values="0; 0; 0; 0; 0; 0; 0; 0; 0; 0; 0; 0; 0; 0; 0; 0; 0; 0; 0; 0; 0; 0; 0; 0; 0; 0; 0; 0; 0; 0; 0; 0; 0; 0; 0" keyTimes="0; 0.029; 0.059; 0.088; 0.118; 0.147; 0.176; 0.206; 0.235; 0.265; 0.294; 0.324; 0.353; 0.382; 0.412; 0.441; 0.471; 0.5; 0.529; 0.559; 0.588; 0.618; 0.647; 0.676; 0.706; 0.735; 0.765; 0.794; 0.824; 0.853; 0.882; 0.912; 0.941; 0.971; 1" keySplines="0.333 0 0.667 1; 0.333 0 0.667 1; 0.333 0 0.667 1; 0.333 0 0.667 1; 0.333 0 0.667 1; 0.333 0 0.667 1; 0.333 0 0.667 1; 0.333 0 0.667 1; 0.333 0 0.667 1; 0.333 0 0.667 1; 0.333 0 0.667 1; 0.333 0 0.667 1; 0.333 0 0.667 1; 0.333 0 0.667 1; 0.333 0 0.667 1; 0.333 0 0.667 1; 0.333 0 0.667 1; 0.333 0 0.667 1; 0.333 0 0.667 1; 0.333 0 0.667 1; 0.333 0 0.667 1; 0.333 0 0.667 1; 0.333 0 0.667 1; 0.333 0 0.667 1; 0.333 0 0.667 1; 0.333 0 0.667 1; 0.333 0 0.667 1; 0.333 0 0.667 1; 0.333 0 0.667 1; 0.333 0 0.667 1; 0.333 0 0.667 1; 0.333 0 0.667 1; 0.333 0 0.667 1; 0.333 0 0.667 1" fill="freeze" /><g transform="scale(1,1)"><animateTransform repeatCount="indefinite" type="scale" attributeName="transform" dur="7.933s" begin="0s" calcMode="spline" values="1 1; 1 0.987; 1 1; 1 0.987; 1 1; 1 0.987; 1 1; 1 0.987; 1 1; 1 0.987; 1 1; 1 0.987; 1 1; 1 0.987; 1 1; 1 0.987; 1 1; 1 0.987; 1 1; 1 0.987; 1 1; 1 0.987; 1 1; 1 0.987; 1 1; 1 0.987; 1 1; 1 0.987; 1 1; 1 0.987; 1 1; 1 0.987; 1 1; 1 0.987; 1 1" keyTimes="0; 0.029; 0.059; 0.088; 0.118; 0.147; 0.176; 0.206; 0.235; 0.265; 0.294; 0.324; 0.353; 0.382; 0.412; 0.441; 0.471; 0.5; 0.529; 0.559; 0.588; 0.618; 0.647; 0.676; 0.706; 0.735; 0.765; 0.794; 0.824; 0.853; 0.882; 0.912; 0.941; 0.971; 1" keySplines="0.333 0 0.667 1; 0.333 0 0.667 1; 0.333 0 0.667 1; 0.333 0 0.667 1; 0.333 0 0.667 1; 0.333 0 0.667 1; 0.333 0 0.667 1; 0.333 0 0.667 1; 0.333 0 0.667 1; 0.333 0 0.667 1; 0.333 0 0.667 1; 0.333 0 0.667 1; 0.333 0 0.667 1; 0.333 0 0.667 1; 0.333 0 0.667 1; 0.333 0 0.667 1; 0.333 0 0.667 1; 0.333 0 0.667 1; 0.333 0 0.667 1; 0.333 0 0.667 1; 0.333 0 0.667 1; 0.333 0 0.667 1; 0.333 0 0.667 1; 0.333 0 0.667 1; 0.333 0 0.667 1; 0.333 0 0.667 1; 0.333 0 0.667 1; 0.333 0 0.667 1; 0.333 0 0.667 1; 0.333 0 0.667 1; 0.333 0 0.667 1; 0.333 0 0.667 1; 0.333 0 0.667 1; 0.333 0 0.667 1" fill="freeze" /><g transform="translate(-310,-310)"><animateTransform repeatCount="indefinite" type="translate" attributeName="transform" dur="7.933s" begin="0s" calcMode="spline" values="-310 -310; -310 -310; -310 -310; -310 -310; -310 -310; -310 -310; -310 -310; -310 -310; -310 -310; -310 -310; -310 -310; -310 -310; -310 -310; -310 -310; -310 -310; -310 -310; -310 -310; -310 -310; -310 -310; -310 -310; -310 -310; -310 -310; -310 -310; -310 -310; -310 -310; -310 -310; -310 -310; -310 -310; -310 -310; -310 -310; -310 -310; -310 -310; -310 -310; -310 -310; -310 -310" keyTimes="0; 0.029; 0.059; 0.088; 0.118; 0.147; 0.176; 0.206; 0.235; 0.265; 0.294; 0.324; 0.353; 0.382; 0.412; 0.441; 0.471; 0.5; 0.529; 0.559; 0.588; 0.618; 0.647; 0.676; 0.706; 0.735; 0.765; 0.794; 0.824; 0.853; 0.882; 0.912; 0.941; 0.971; 1" keySplines="0 0 1 1; 0 0 1 1; 0 0 1 1; 0 0 1 1; 0 0 1 1; 0 0 1 1; 0 0 1 1; 0 0 1 1; 0 0 1 1; 0 0 1 1; 0 0 1 1; 0 0 1 1; 0 0 1 1; 0 0 1 1; 0 0 1 1; 0 0 1 1; 0 0 1 1; 0 0 1 1; 0 0 1 1; 0 0 1 1; 0 0 1 1; 0 0 1 1; 0 0 1 1; 0 0 1 1; 0 0 1 1; 0 0 1 1; 0 0 1 1; 0 0 1 1; 0 0 1 1; 0 0 1 1; 0 0 1 1; 0 0 1 1; 0 0 1 1; 0 0 1 1" fill="freeze" /><use clip-path="url(#cp-620-620)" height="620" width="620" y="0" x="0" xlink:href="#comp_0" href="#comp_0" /></g></g></g></g></g></svg>